<ttFont>
<head>
    <!-- Most of this table will be recalculated by the compiler -->
    <tableVersion value="1.0"/>
    <fontRevision value="3.107"/>
    <checkSumAdjustment value="0x8d11238d"/>
    <magicNumber value="0x5f0f3cf5"/>
    <flags value="00000000 00000011"/>
    <unitsPerEm value="984"/>
    <created value="Thu Jun  5 12:13:04 2014"/>
    <modified value="Thu Jun  5 12:13:04 2014"/>
    <xMin value="-181"/>
    <yMin value="-370"/>
    <xMax value="1360"/>
    <yMax value="1160"/>
    <macStyle value="00000000 00000000"/>
    <lowestRecPPEM value="3"/>
    <fontDirectionHint value="2"/>
    <indexToLocFormat value="0"/>
    <glyphDataFormat value="0"/>
  </head>
          <CharString index="0">
            rmoveto
            117.470001221 -62.0800018311 65 -141.600006104 -59.6799926758 -66.4900054932 -13.0200042725 -25.0200042725 -65.6799926758 vhcurveto
            29.7899932861 -87.0399932861 rlineto
            18 53.6600036621 50.6999969482 10 36.2799987793 hhcurveto
            68.25 30.5399932861 -23.25 -68.5299987793 hvcurveto
            -30.1699981689 -66.3899993896 vlineto
            -154.130004883 -86.6999969482 -62.3600006104 -114.699996948 -95.6999969482 65.0399932861 -67.0399932861 105.679992676 63.4600067139 57.5899963379 22.2700042725 56.5500030518 37.3699951172 hvcurveto
            20.5800018311 -51.7200012207 38.1100006104 -20 58.1699981689 -5.74000549316 27.4499969482 85.3999938965 rcurveline
            -25.9799957275 9.66000366211 -13.9400024414 15 43.2799987793 vvcurveto
            -228.229995728 442 callgsubr
            -48.7899932861 -26.2400054932 28.5800018311 51.1300048828 61.8099975586 41.1900024414 30.2299957275 83.0700073242 hvcurveto
            52.6999969482 -106.770004272 hlineto
            -42.2799987793 -23.9199981689 -33.6100006104 -22.7100067139 -44.3899993896 hhcurveto
            endchar
          </CharString>
          <CharString index="1">
            rmoveto
            -156.789993286 -92.4600067139 -112.660003662 -166.729995728 -173.460006714 92.4700012207 -105.960006714 156.119995117 156.130004883 92.4499969482 112.660003662 166.740005493 173.449996948 -91.8099975586 105.960006714 -156.11000061 hvcurveto
            -97.0899963379 vmoveto
            74.4299926758 39.1699981689 -55.8500061035 -126.470001221 -125.440002441 -39.1699981689 -56.8699951172 -75.0899963379 -75.1000061035 -39.1699981689 55.8500061035 126.470001221 125.440002441 39.8300018311 483 callgsubr
            hvcurveto
            endchar
          </CharString>
          <CharString index="2">
            rmoveto
            -163.88999939 -101.979995728 -112.050003052 -182.320007324 -189.339996338 101.979995728 -108.080001831 163.88999939 163.880004883 101.320007324 111.759994507 185.979995728 186.660003662 -101.320007324 107.38999939 -163.880004883 hvcurveto
            -94.7299957275 vmoveto
            85.0899963379 46.7799987793 -57.2100067139 -142.119995117 -146.429992676 -46.4199981689 -56.9100036621 -85.4499969482 -83.1300048828 -49.3999938965 56.9100036621 146.11000061 142.440002441 48.4199981689 57.2100067139 84.1100006104 hvcurveto
            endchar
          </CharString>
          <CharString index="3">
            rmoveto
            -118.449996948 -94.5700073242 -60.6600036621 -101.869995117 -83.9600067139 49.5099945068 -51.1100006104 132.570007324 -39.0800018311 hvcurveto
            88.8099975586 -25.9400024414 23.2799987793 -18.6100006104 -42.8300018311 vvcurveto
            -45.3899993896 -41.4299926758 -26.9299926758 -61.2100067139 -60.6100006104 -52.0399932861 21.3200073242 36.6600036621 -42.3600006104 vhcurveto
            -65.9400024414 -72.6199951172 rlineto
            -46.3399963379 49 76.4499969482 -34.4400024414 99.8699951172 hhcurveto
            144.830001831 86.4600067139 73.0599975586 104.429992676 103.61000061 -68.8300018311 44.1100006104 -108.529998779 33.0800018311 hvcurveto
            -96.5099945068 29.3000030518 -21.6300048828 13.8800048828 36.8699951172 vvcurveto
            38.7899932861 36.8300018311 19.9299926758 53.25 47.6199951172 42.3399963379 -15.3399963379 -32.6300048828 40.3200073242 vhcurveto
            62.5500030518 69.9499969482 rlineto
            47.0500030518 -51.0399932861 -62.4700012207 25.6999969482 -88.0800018311 hhcurveto
            return
          </CharString>
          <CharString index="4">
            rmoveto
            -122.919998169 -81.6799926758 -66.4299926758 -87.4199981689 -78.7299957275 48.3899993896 -51.7200012207 109.25 -30 hvcurveto
            98.6000061035 -27.3399963379 20.9100036621 -14.8999938965 -45.1499938965 vvcurveto
            -37.8500061035 -36.1900024414 -24.2100067139 -58.1300048828 -53.6100006104 -49 20.3600006104 32.6399993896 -39.3200073242 vhcurveto
            -65.6000061035 -73.6300048828 rlineto
            -44.0700073242 49.0500030518 71.4700012207 -30.3600006104 90.6999969482 hhcurveto
            120.929992676 102.36000061 58.1499938965 110 93.6999969482 -61.2899932861 44 -107.600006104 313 callgsubr
            -90.4400024414 25.0500030518 -20.5299987793 15.9299926758 34.5099945068 vvcurveto
            32.4900054932 28.5099945068 21.2200012207 53.5500030518 44.2400054932 42.6999969482 -15 -29.9400024414 43.2899932861 vhcurveto
            50.1900024414 76.6199951172 rlineto
            39.3600006104 -49.6600036621 -62.4700012207 23.6999969482 -75.6999969482 hhcurveto
            return
          </CharString>
          <CharString index="5">
            rmoveto
            -184.570007324 -23 callsubr
            110 callsubr
            -128.759994507 184.570007324 185.220001221 117.320007324 133.100006104 227.320007324 231.660003662 -117.320007324 128.729995728 -185.220001221 hvcurveto
            -101.089996338 vmoveto
            return
          </CharString>
          <CharString index="6">
            30.5 return
          </CharString>
          <CharString index="7">
            rmoveto
            94 62 64.5 90 8 hvcurveto
            -75.5 14.5 rlineto
            -49 41 callgsubr
            49 -5 callsubr
            -14.5 rlineto
            -90 8 60.5 -64.5 52 callsubr
            return
          </CharString>
          <CharString index="8">
            -107 callgsubr
            hintmask 11101000
            return
          </CharString>
          <CharString index="9">
            rmoveto
            35.5500030518 -103.169998169 20.6999969482 -84.75 -92.6300048828 vvcurveto
            -133.089996338 -39.4400024414 -33.3600006104 -43.8699951172 -41.1499938965 -27.2200012207 24.1900024414 77.4900054932 vhcurveto
            187.020004272 vlineto
            -119.929992676 -16.0800018311 rlineto
            -170.940002441 vlineto
            -86.0800018311 -29.8500061035 -15.6000061035 -39.4900054932 -53.1100006104 -29.2299957275 46.5599975586 127.149993896 85.6999969482 19.3800048828 84.4199981689 35.5399932861 103.169998169 vhcurveto
            -120.190002441 hlineto
            -32.3699951172 -74.6999969482 -28.9799957275 -94.3600006104 -119.630004883 vvcurveto
            -181.660003662 82.3200073242 -73.75 106.190002441 83.6999969482 46.3399963379 34.6399993896 85.6799926758 20.0399932861 vhcurveto
            -84.6799926758 16.0500030518 51.3200073242 -35.6399993896 78.1199951172 hhcurveto
            107.789993286 84.6600036621 77.0500030518 178.36000061 119.630004883 -30.3000030518 94.3600006104 -32.3800048828 74.6900024414 hvcurveto
            endchar
          </CharString>
          <CharString index="10">
            rmoveto
            -168.220001221 -132.039993286 -126.729995728 -232.660003662 -235.059997559 124.38999939 -126.36000061 179.229995728 94.6999969482 71.75 40.7200012207 43.0700073242 41.7599945068 hvcurveto
            -62.2700042725 79.6799926758 rlineto
            -30.0200042725 -39.6799926758 -40.6399993896 -27.9799957275 -59.5599975586 hhcurveto
            -98.8500061035 -71.4600067139 74.6100006104 181.339996338 187.279998779 73.7599945068 70.3399963379 95.1699981689 48 40.3000030518 -17.0200042725 -33.3000030518 39.6000061035 hvcurveto
            67.6300048828 79.3399963379 rlineto
            46.3800048828 -56.3600006104 -56.8099975586 26.3699951172 -90.3999938965 hhcurveto
            endchar
          </CharString>
          <CharString index="11">
            127 callgsubr
            -30 -30 -38 -24 12 -18.5 -8 callgsubr
            -14 152 callsubr
            -115 rlineto
            67 hlineto
            44 91 rlineto
            19.5 41 6.5 18 21.5 vvcurveto
            39 -29.5 29 -39 vhcurveto
            endchar
          </CharString>
          <CharString index="12">
            -47 -33 -33.5 -44 -43.5 33 -33.5 47 48 32.5 33.5 43.5 44 -32.5 33.5 -48 hvcurveto
            return
          </CharString>
          <CharString index="13">
            rmoveto
            -132.020004272 hlineto
            -119.320007324 -444.039993286 -115.869995117 444.039993286 rlineto
            -136.039993286 hlineto
            168.509994507 179 callsubr
            43.5700073242 hlineto
            -29.3200073242 -74.5299987793 -34.4199981689 -34.8899993896 -105.300003052 -15.2799987793 13.7400054932 -93.3999938965 rcurveline
            157.210006714 12.2700042725 77.6199951172 79.9600067139 39.7200012207 124.220001221 rrcurveto
            endchar
          </CharString>
          <CharString index="14">
            -134.410003662 -74.4600067139 -118.699996948 -165.039993286 -182.020004272 76.4199981689 -93.0500030518 121.36000061 84.9199981689 49.0200042725 55.7899932861 83.3399963379 30.3999938965 hvcurveto
            7.97999572754 -45.1300048828 11.0399932861 -57.3399963379 41.6799926758 -29.6399993896 53.5099945068 -7.33999633789 rlinecurve
            42.1900024414 98.75 -30 8.28999328613 -14.3999938965 14.6600036621 -7.03999328613 30.3899993896 rlinecurve
            -26.3399963379 118.380004883 rlineto
            return
          </CharString>
          <CharString index="15">
            rmoveto
            -34.4700012207 -32 -11.9299926758 -28.7100067139 -28.4100036621 hvcurveto
            74.8300018311 5.53999328613 32.3600006104 41.3099975586 50.9799957275 hhcurveto
            23 18.5 -6.5 211 callsubr
            19 hvcurveto
            -40 callgsubr
            60.5 rlineto
            16 -25 -33.5 11 -41 hhcurveto
            -118.5 -71.5 -94 -142 -121 49 -81 116.5 97.5 61 69 85 89 -54 49 -71.5 hvcurveto
            -32 -220.5 rmoveto
            -44.5299987793 -15.9700012207 33.8200073242 87.4199981689 -1.41000366211 hvcurveto
            19.9499969482 19.0500030518 22.8000030518 11.8099975586 23.5599975586 hhcurveto
            34 19 -18.5 -54 -48.5 -18 -32 -38.5 hvcurveto
            endchar
          </CharString>
          <CharString index="16">
            -357.830001831 -49 callsubr
            358.75 92.7299957275 -231.089996338 150.440002441 189.149993896 91.0399932861 -189.149993896 139.770004272 hlineto
            endchar
          </CharString>
          <CharString index="17">
            rmoveto
            17.6399993896 -95.9400024414 8.69999694824 -92.7200012207 -79.0700073242 vvcurveto
            -137.979995728 -61.0200042725 -41.2899932861 -49.1900024414 -44.1499938965 -29.8699951172 28.2100067139 66.8699951172 vhcurveto
            return
          </CharString>
          <CharString index="18">
            241 callgsubr
            -137.449996948 -202.399993896 -134.809997559 40.4400024414 -82.0399932861 88.3000030518 -48.3399963379 hvcurveto
            hintmask 11010100
            -107.740005493 -101.050003052 235.720001221 97.6600036621 hlineto
            hintmask 11100100
            -84.3000030518 34.7299957275 -33.0399932861 71.3399963379 162.509994507 vvcurveto
            163.190002441 60.7299957275 75.5700073242 102.440002441 104.410003662 58.7599945068 -75.5700073242 -162.529998779 -153.919998169 -28.4199981689 -80.6100006104 -89.5800018311 -34.7100067139 vhcurveto
            hintmask 11101000
            -97.6600036621 235.710006714 101.050003052 -111.699996948 vlineto
            hintmask 11100100
            95.5700073242 53.6300048828 37.7899932861 80.7100067139 131.509994507 vvcurveto
            205.699996948 -114.679992676 133.490005493 -187.869995117 vhcurveto
            endchar
          </CharString>
          <CharString index="19">
            815 -107 callgsubr
            return
          </CharString>
          <CharString index="20">
            rmoveto
            48.5 -56 130.5 88 129.5 -88 49.5 56 -139 126 78 callsubr
            hlineto
            return
          </CharString>
          <CharString index="21">
            35 -77.8000030518 92.3800048828 577.149993896 434 callgsubr
            hstemhm
            60.5 115.820007324 -91.1500091553 264 callgsubr
            126.650009155 123.919998169 -92.4900054932 115.169998169 hintmask 11011000
            404.369995117 177.75 rmoveto
            hintmask 11010100
            43.6499938965 28.1999969482 33.6600036621 40.4900054932 52.0399932861 vvcurveto
            82.7400054932 -54.4199981689 36.6799926758 -99.8800048828 32.6000061035 vhcurveto
            -101.339996338 32.6399993896 -17.6100006104 15.9299926758 38.2100067139 vvcurveto
            33.8699951172 31.5299987793 20.5800018311 51.5899963379 49.5599975586 42.0399932861 -12.6399993896 -26.6600036621 42.3399963379 vhcurveto
            44.8500061035 76 rlineto
            33.3600006104 -48.0700073242 -61.1499938965 21.6600036621 -73.6600036621 hhcurveto
            -117.949996948 -84.3399963379 -60.4700012207 -92.0200042725 -45.5200042725 16.3500061035 -31.6999969482 35.5500030518 -26.4299926758 hvcurveto
            hintmask 11101000
            -42.3099975586 -27.2899932861 -34.2599945068 -43.0500030518 -53.1000061035 vvcurveto
            -82.3800048828 54.0700073242 -35.3600006104 99.2299957275 -31.2799987793 vhcurveto
            104.039993286 -32.6600036621 17.2400054932 -15.3000030518 -38.8500061035 vvcurveto
            327 callgsubr
            -35.8500061035 -19.2700042725 -52.9400024414 -49.9299926758 -42.3399963379 13.3600006104 27.6600036621 -42.3600006104 vhcurveto
            -43.1699981689 -81.0200042725 rlineto
            -31.0399932861 45.0800018311 60.75 -21.3399963379 75.0800018311 hhcurveto
            125.210006714 84.3899993896 60.7599945068 92.3699951172 hvcurveto
            hintmask 11011000
            45.9100036621 -17.1399993896 30.5200042725 -37.4900054932 25.9900054932 vhcurveto
            hintmask 11100100
            -142.550003052 63.4100036621 rmoveto
            -67.2100067139 22.6399993896 415 callgsubr
            17.6399993896 40.1900024414 vvcurveto
            20.4499969482 10.1199951172 25.6699981689 19.8899993896 22.3099975586 vhcurveto
            17.2100067139 -7.17999267578 19.1699981689 -7.10000610352 21.2299957275 -7.25999450684 rrcurveto
            81.9299926758 -28.2799987793 20.6399993896 -17.6600036621 -39.8699951172 vvcurveto
            -21.1699981689 -12.5299987793 -25.6300048828 -20.6399993896 -21.5800018311 vhcurveto
            -20.9700012207 8.66999816895 -23.8000030518 8.77000427246 -26.7599945068 9.38999938965 rrcurveto
            endchar
          </CharString>
          <CharString index="22">
            -401.529998779 -691.380004883 405.11000061 99.1000061035 -272.410003662 203.38999939 221.809997559 97.3999938965 -221.809997559 192.729995728 hlineto
            endchar
          </CharString>
          <CharString index="23">
            rmoveto
            -52 99.5 -209.5 -124 -40 callgsubr
            -66 rlineto
            return
          </CharString>
          <CharString index="24">
            rmoveto
            -128 -383.75 hlineto
            -97.5899963379 41.2599945068 -45.4299926758 92.8699951172 -17.3200073242 vhcurveto
            38.1699981689 93.4499969482 rlineto
            -32.3200073242 15.3399963379 -11.9799957275 18.0200042725 49.6300048828 vvcurveto
            endchar
          </CharString>
          <CharString index="25">
            51 0 93.0700073242 160.439987183 85.3399963379 137.130004883 91.0599975586 11 callsubr
            159.289993286 129.649993896 -107.329986572 132.990005493 hintmask 11110100
            387.580001831 300.36000061 rmoveto
            hintmask 11111000
            54.9799957275 12.6799926758 54.6799926758 37.6000061035 70.6999969482 vvcurveto
            106.100006104 -96.1300048828 39.6000061035 -157.149993896 vhcurveto
            -163.320007324 -567.039993286 187.320007324 hlineto
            hintmask 11110100
            147.130004883 293 callsubr
            36.9499969482 128.11000061 91.3000030518 -70.3200073242 31.6600036621 -65 12.3399963379 hvcurveto
            -179.279998779 175.619995117 rmoveto
            47.7200012207 hlineto
            hintmask 11111000
            73.1100006104 38.4600067139 -16.3200073242 -49.7299957275 -48.5299987793 -37.1199951172 -22.5500030518 -60.5800018311 hvcurveto
            -61.5899963379 hlineto
            -245.770004272 vmoveto
            160.429992676 70.9499969482 vlineto
            hintmask 11110100
            64.2200012207 46.4400024414 -21.6199951172 -60.4199981689 -64.7700042725 -50.1499938965 -13.6300048828 -71.1199951172 hvcurveto
            endchar
          </CharString>
          <CharString index="26">
            -252.539993286 74.2599945068 72.1499938965 122.130004883 hstem
            172.75 97.3800048828 vstem
            171.36000061 16 rmoveto
            -74.2899932861 hlineto
            -15.0200042725 -122.130004883 rlineto
            64.3399963379 26.3600006104 -12.2899932861 -25.3000030518 -25.2599945068 -20.3000030518 -9.30000305176 -28 -25.3200073242 -18.6799926758 6.33999633789 10.3399963379 -19.3399963379 hvcurveto
            -31.1100006104 -63.5500030518 rlineto
            -16.0200042725 22.7100067139 37.0800018311 -11.3699951172 42.75 hhcurveto
            80.5700073242 57.0200042725 41.1300048828 67.0200042725 48.1300048828 -29.0800018311 37.6600036621 -69.6999969482 7.02000427246 hvcurveto
            endchar
          </CharString>
          <CharString index="27">
            80.6399993896 return
          </CharString>
          <CharString index="28">
            351.929992676 -128 -360.270004272 vlineto
            -125.490005493 87.4900054932 -58.3399963379 106.460006714 120.490005493 126.449996948 76.6399993896 189.339996338 vhcurveto
            return
          </CharString>
          <CharString index="29">
            754 rmoveto
            94 62 64 80.5 8 hvcurveto
            -75.5 14 rlineto
            -39 41 callgsubr
            39 -5 callsubr
            -14 78 callsubr
            8 60.5 -64 52 callsubr
            return
          </CharString>
          <CharString index="30">
            rmoveto
            -209.5 124 -52 -99.5 225 -90.5 rlineto
            return
          </CharString>
          <CharString index="31">
            -14.7200012207 return
          </CharString>
          <CharString index="32">
            -80 callsubr
            -73 callgsubr
            return
          </CharString>
          <CharString index="33">
            34.5 22 -52 callgsubr
            61.5 hhcurveto
            return
          </CharString>
          <CharString index="34">
            184 139 callsubr
            413 callsubr
            -75.6500091553 -21 615.270004272 101.080001831 -4.32000732422 354 callsubr
            142 callsubr
            326.330001831 139.38999939 hintmask 10101100
            244 778 108 callgsubr
            331.600006104 -47.6999969482 rmoveto
            -103.11000061 27.4499969482 rlineto
            hintmask 10011100
            -37.1799926758 -121.990005493 rlineto
            hintmask 01101100
            2.86999511719 -18.0800018311 -18.9100036621 1.44999694824 -19.6699981689 hhcurveto
            -184.559997559 -23 callsubr
            -156.36000061 54.0500030518 -109.509994507 92.1600036621 -54.4499969482 hvcurveto
            -39.9499969482 -128.339996338 103.119995117 -27.4600067139 35.8399963379 120.820007324 214 callsubr
            133.089996338 232 callsubr
            -62.1300048828 rmoveto
            13.7700042725 12.9799957275 -1 -2.17999267578 12.1499938965 hvcurveto
            -144.229995728 -478.589996338 rlineto
            -36.9600067139 36.6499938965 -20.8800048828 68.0899963379 117.070007324 vvcurveto
            186.100006104 60.7299957275 73.8699951172 102.440002441 vhcurveto
            -518.619995117 vmoveto
            -13.8399963379 -13.1199951172 1.05999755859 2.35000610352 -12.3399963379 hvcurveto
            144.089996338 480.080001831 rlineto
            38.0200042725 -36.4199981689 20.3500061035 -68.7400054932 -119.009994507 vvcurveto
            399 callgsubr
            -103.779998779 vhcurveto
            endchar
          </CharString>
          <CharString index="35">
            rmoveto
            -129 hlineto
            -118.300003052 -343.429992676 -133.289993286 343.429992676 rlineto
            -132 hlineto
            185.929992676 -415.429992676 rlineto
            41.4900054932 hlineto
            -28.0200042725 -50.4199981689 -33.6999969482 -18.5800018311 -77.2899932861 -9.27000427246 17.0800018311 -86.0500030518 rcurveline
            131.259994507 12.2799987793 63.8699951172 38.3399963379 51.4199981689 130.289993286 rrcurveto
            endchar
          </CharString>
          <CharString index="36">
            76 21 -63 callgsubr
            return
          </CharString>
          <CharString index="37">
            143 callsubr
            hintmask 10011100
            -98.2599945068 12.3600006104 -99.8099975586 5.74000549316 -38.0800018311 vhcurveto
            -240.550003052 560.190002441 rlineto
            -167.809997559 -47 callsubr
            169 callsubr
            282.039993286 hlineto
            hintmask 01101100
            128.339996338 -11.0599975586 88.0700073242 -6.69999694824 60.3999938965 vhcurveto
            236.529998779 -558.850006104 rlineto
            endchar
          </CharString>
          <CharString index="38">
            -0.5 -301.5 rmoveto
            -42 -26.5 21.5 34.5 30.9199981689 197 callsubr
            24.7200012207 30 16.2599945068 hvcurveto
            23.4400024414 -8.39999389648 rlineto
            50.5 -17 19 -14.5 170 callgsubr
            vvcurveto
            -30.5 -23.5 -23 -45 vhcurveto
            endchar
          </CharString>
          <CharString index="39">
            34 -158.399993896 245.490005493 -97.120010376 97.1199951172 -71.0899963379 -21 591 241.399993896 hstemhm
            43.8500061035 131 52.7699890137 98.6799926758 50.3600158691 132.679992676 hintmask 00111110
            509.339996338 193.470001221 rmoveto
            124.600006104 -80.8099975586 47.7799987793 -116.850006104 36.7299957275 vhcurveto
            -111.169998169 34.6300048828 -25.6600036621 21.5599975586 48.5299987793 vvcurveto
            52.1199951172 43.1499938965 26.5800018311 60.2100067139 54.9799957275 46.9799957275 -17.3399963379 -40.2799987793 45.3200073242 vhcurveto
            64.2100067139 72.9400024414 -44.8200073242 42.4499969482 -50.5800018311 26.8399963379 -68 9.21000671387 rlinecurve
            147.580001831 -98.6799926758 -146.720001221 vlineto
            -108.479995728 -14.2400054932 -75.2899932861 -69.1000061035 -98.1100006104 vvcurveto
            -100.630004883 60.5299987793 -56.1100006104 140.190002441 -43.3999938965 vhcurveto
            hintmask 01011110
            104.490005493 -32.2799987793 27.6000061035 -24.9299926758 -56.1699981689 vvcurveto
            -64.3699951172 -51.4100036621 -34.25 -71.5299987793 -68.6100006104 -54.3200073242 24.9799957275 42.9799957275 -46.0200042725 vhcurveto
            -68.2599945068 -74.6199951172 50.1300048828 -49.2299957275 69.3699951172 -35.0800018311 91.6100006104 -6.14999389648 rlinecurve
            hintmask 10011110
            -148.369995117 98.6799926758 vlineto
            hintmask 00111110
            153.399993896 vlineto
            116.270004272 21.2400054932 66.7700042725 75.9100036621 101.320007324 vvcurveto
            endchar
          </CharString>
          <CharString index="40">
            -81.6300048828 hlineto
            -52.3000030518 -10.9199981689 17.6399993896 19.2400054932 15.5899963379 8.32000732422 14.8099975586 13.1100006104 8.41000366211 hvcurveto
            -5.58000183105 20.2599945068 20.3399963379 -2.03999328613 22.8200073242 hhcurveto
            132.789993286 80.4299926758 75 102.979995728 65.4199981689 -32.0200042725 41.6199951172 -64.7100067139 28.3399963379 hvcurveto
            63.3899993896 49.6600036621 4.38000488281 14.3399963379 40.2700042725 hvcurveto
            return
          </CharString>
          <CharString index="41">
            114.910003662 340 callsubr
            -122.63999939 hlineto
            -78.6799926758 -435.830001831 -84.3999938965 435.830001831 rlineto
            -130.850006104 hlineto
            -92.4499969482 -435.830001831 -73.6100006104 435.830001831 rlineto
            -128.679992676 hlineto
            117.570007324 179 callsubr
            157.320007324 hlineto
            return
          </CharString>
          <CharString index="42">
            rmoveto
            -156.789993286 -92.4600067139 -112.660003662 -166.729995728 -173.460006714 92.4700012207 -105.960006714 156.119995117 156.130004883 92.4499969482 112.660003662 166.740005493 173.449996948 -91.8099975586 105.960006714 -156.11000061 hvcurveto
            -97.0899963379 vmoveto
            67.4199981689 38.4100036621 -42.6799926758 -95.2100067139 8.61000061035 hvcurveto
            -230.149993896 hlineto
            94.5200042725 8.78999328613 38.9799957275 43.3600006104 67.9299926758 hhcurveto
            -0.660003662109 -364.619995117 rmoveto
            -70.0200042725 -38.7299957275 45.25 101.289993286 -7.03999328613 hvcurveto
            231.570007324 hlineto
            -100.529998779 -7.08000183105 -38.7200012207 -46.0099945068 -69.9799957275 hhcurveto
            endchar
          </CharString>
          <CharString index="43">
            289 callsubr
            382 callsubr
            30.9199981689 34.2299957275 30.2100067139 46.0899963379 124 callgsubr
            -362.630004883 128 383.440002441 vlineto
            100.679992676 -55.6600036621 59.9799957275 -94.2799987793 vhcurveto
            return
          </CharString>
          <CharString index="44">
            rmoveto
            -163.88999939 -101.979995728 -112.050003052 -182.320007324 -189.339996338 101.979995728 -108.080001831 163.88999939 163.880004883 101.320007324 111.759994507 185.979995728 186.660003662 -101.320007324 107.38999939 -163.880004883 hvcurveto
            -94.7299957275 vmoveto
            76.5099945068 48.2299957275 -46.2599945068 -112.649993896 8.94999694824 hvcurveto
            -267.679992676 hlineto
            112.720001221 9.19999694824 49.1999969482 46.1900024414 75.5800018311 hhcurveto
            -402.660003662 vmoveto
            -76.6000061035 -50.5200042725 48.3200073242 121.88999939 -7.4700012207 hvcurveto
            268.869995117 hlineto
            -121.960006714 -7.17999267578 -48.4100036621 -48.2400054932 -78.6900024414 hhcurveto
            endchar
          </CharString>
          <CharString index="45">
            rmoveto
            -67.5700073242 -53.3600006104 -31.8999938965 -53.5599975586 -40.8300018311 hvcurveto
            hintmask 01101011
            -6.5299987793 39.1999969482 -8.57000732422 25.3699951172 -10.0700073242 18.8600006104 rrcurveto
            hintmask 01100111
            -117.630004883 -16.0800018311 rlineto
            342 callsubr
            -41.9600067139 9.96000671387 -47.3000030518 -66.1300048828 vvcurveto
            -370.580001831 128 vlineto
            hintmask 01110011
            370.369995117 vlineto
            47.9400024414 30.5700073242 33.8999938965 29.3300018311 45.4199981689 124 callgsubr
            -566.320007324 vlineto
            hintmask 10110011
            128 -14.0599975586 rlineto
            601.190002441 vlineto
            hintmask 01110011
            100.679992676 -55.6600036621 59.9799957275 -94.2899932861 vhcurveto
            endchar
          </CharString>
          <CharString index="46">
            287 21 -21 571.940002441 119.429992676 0 -20 hstemhm
            46.0399932861 690.330001831 hintmask 10110000
            736.369995117 hmoveto
            -54.6199951172 95 callgsubr
            -171.789993286 hlineto
            -115.580001831 -484.020004272 -122.929992676 484.020004272 rlineto
            -170.789993286 hlineto
            -54.6199951172 80 callsubr
            128.369995117 hlineto
            16.8899993896 284.979995728 rlineto
            hintmask 11010000
            5.96000671387 98.6199951172 1.94000244141 95.7899932861 -3.72999572754 92.5500030518 133.559997559 -496.660003662 rcurveline
            125 hlineto
            126.25 496 -2.39999389648 -72.9600067139 4.63000488281 -107.169998169 6.61999511719 -101.88999939 rlinecurve
            17.5500030518 -289.259994507 rlineto
            endchar
          </CharString>
          <CharString index="47">
            -23 0 92.7299957275 150.440002441 91.0399932861 139.770004272 92.3899993896 return
          </CharString>
          <CharString index="48">
            rmoveto
            -97.0899963379 25.4499969482 rlineto
            hintmask 10011100
            -33.1799926758 -102.149993896 rlineto
            hintmask 01101100
            1.86999511719 -14.4100036621 -15.0099945068 0.940002441406 -15.5700073242 hhcurveto
            -163.88999939 -101.979995728 -108.720001221 -185.660003662 -126.800003052 45.7400054932 -90.3500061035 79.4299926758 -45.8500061035 hvcurveto
            -34.5700073242 -104.660003662 96.7599945068 -26.1100006104 31.8899993896 99.4799957275 rlineto
            hintmask 10101100
            -2.07000732422 14.9100036621 15.5500030518 -1.05000305176 16.1499938965 hhcurveto
            163.88999939 101.320007324 487 callgsubr
            127.800003052 -45.8399963379 88.9199981689 -79.8899993896 44.5200042725 hvcurveto
            -139.479995728 442 callgsubr
            10.3000030518 9.72999572754 -0.520004272461 -1.19999694824 9.16000366211 hvcurveto
            -119.570007324 -370.800003052 rlineto
            -28.6600036621 28.6600036621 -15.5200042725 52.7100067139 91.5200042725 vvcurveto
            145.770004272 48.4100036621 53.8699951172 86.1499938965 vhcurveto
            -402.660003662 vmoveto
            -10.3500061035 -9.82000732422 0.589996337891 1.33000183105 -9.27000427246 hvcurveto
            119.300003052 372.619995117 rlineto
            28.9700012207 -27.6699981689 15.0800018311 -51.8200073242 -91.6999969482 vvcurveto
            -146.440002441 -46.4199981689 -56.8999938965 -87.4900054932 vhcurveto
            endchar
          </CharString>
          <CharString index="49">
            -52 callsubr
            -129.320007324 -220.149993896 -196.88999939 220.149993896 310 callgsubr
            -71 callgsubr
            245.75 196.88999939 -245.75 vlineto
            endchar
          </CharString>
          <CharString index="50">
            691.369995117 return
          </CharString>
          <CharString index="51">
            -52 callsubr
            -128.320007324 118 callsubr
            endchar
          </CharString>
          <CharString index="52">
            -53.5800018311 73 rlineto
            -32 -46 -38.3200073242 -14.3399963379 -47.25 hhcurveto
            return
          </CharString>
          <CharString index="53">
            -79.1100006104 136.880004883 rmoveto
            35 19 195 callgsubr
            -24.7700042725 -9 -20.0800018311 -31.1399993896 -19.5299987793 hvcurveto
            -13.8600006104 5.36999511719 rlineto
            -37.5 13 -17.5 17 28 vvcurveto
            32 21 16 34 vhcurveto
            return
          </CharString>
          <CharString index="54">
            84 21 -21 240.779998779 98.7700042725 254.399993896 97.4299926758 -58 callgsubr
            213.600006104 138.020004272 450 callsubr
            210 callsubr
            rmoveto
            -691.380004883 -73 callgsubr
            240.779998779 80.5399932861 vlineto
            156.419998169 114.660003662 70.7700042725 159.699996948 148.740005493 -106.419998169 71.3899993896 -173.130004883 hvcurveto
            -72.0700073242 -351.830001831 rmoveto
            254.399993896 70.3899993896 vlineto
            90.4600067139 52.75 -35.9799957275 -87.3800048828 -100.36000061 -55.4299926758 -30.6799926758 -87.0599975586 hvcurveto
            endchar
          </CharString>
          <CharString index="55">
            566.369995117 return
          </CharString>
          <CharString index="56">
            rmoveto
            hintmask 01101000
            -128 -14.0500030518 rlineto
            -620.740005493 vlineto
            -87.8800048828 45.4700012207 -46.7899932861 78.8800048828 32.4400024414 32.4499969482 6.67999267578 11.3200073242 26.0200042725 vhcurveto
            hintmask 10011000
            -27.7299957275 90.1499938965 rlineto
            -3.32000732422 -8.63999938965 -10.6600036621 -2 -10.6300048828 hhcurveto
            -20.2599945068 -9.33999633789 12.3000030518 313 callgsubr
            return
          </CharString>
          <CharString index="57">
            45 -76 callsubr
            97.0700073242 142.509994507 82.9400024414 145.619995117 242 callsubr
            return
          </CharString>
          <CharString index="58">
            -566.369995117 return
          </CharString>
          <CharString index="59">
            rmoveto
            hintmask 11101000
            89 callgsubr
            77.1199951172 444 callsubr
            hintmask 11110000
            -86.7899932861 -10.0200042725 -50.6399993896 -41.7100067139 -85.2700042725 vvcurveto
            -103.070007324 91.1300048828 -56.6600036621 129.449996948 80.8099975586 71.0800018311 23.3399963379 39.6799926758 50.6999969482 vhcurveto
            -56.2299957275 75.6399993896 rlineto
            -28.3200073242 -46.6999969482 -37.3000030518 -15.2899932861 -49.2100067139 hhcurveto
            -64.5399932861 -33.5500030518 30.5500030518 44.8699951172 50.1100006104 26.5899963379 23.9600067139 70.1100006104 hvcurveto
            57.3600006104 hlineto
            13.3800048828 88.3000030518 rlineto
            hintmask 11101000
            -64.0599975586 hlineto
            -55.8500061035 -32.1900024414 26.6100006104 40.5399932861 42.8500061035 31.2700042725 23.5899963379 53.1300048828 45.9400024414 32.6600036621 -11.3399963379 -21.6600036621 36.0200042725 hvcurveto
            55.8699951172 70.2599945068 rlineto
            hintmask 11110000
            37.4600067139 -50.1100006104 -57.7599945068 17.6600036621 -76.3699951172 hhcurveto
            endchar
          </CharString>
          <CharString index="60">
            -691.369995117 return
          </CharString>
          <CharString index="61">
            23 0 99.1000061035 203.38999939 97.3999938965 192.729995728 98.7599945068 return
          </CharString>
          <CharString index="62">
            719 717 rmoveto
            -76.5 38 -409.5 -799 77.5 -38 rlineto
            return
          </CharString>
          <CharString index="63">
            93.6000061035 81.8500061035 25.6999969482 41.75 67.0800018311 hvcurveto
            338.440002441 -247.380004883 vlineto
            13.7200012207 -98.0599975586 rlineto
            104.339996338 -179.830001831 hlineto
            -18.9199981689 -33.2299957275 -37.8500061035 -7.97999572754 -39.5399932861 hhcurveto
            -107.419998169 -56.4700012207 70.4700012207 189.169998169 186.020004272 84.0599975586 73.6399993896 97.9799957275 58.9400024414 39.3000030518 -17.3399963379 -37.9799957275 45.9600067139 hvcurveto
            72.3000030518 74.6399993896 rlineto
            return
          </CharString>
          <CharString index="64">
            -52.2599945068 -21.2400054932 -31.0299987793 -32.9400024414 -49.5500030518 vvcurveto
            -67.5 61.5 -55 105.5 107.5 62.5 57 67 47.3399963379 -27.6799926758 36.7899932861 -60.7100067139 27.4900054932 vhcurveto
            return
          </CharString>
          <CharString index="65">
            rmoveto
            152.710006714 -277.050003052 rlineto
            152.059997559 hlineto
            -180.600006104 301.240005493 rlineto
            94.0500030518 36.3399963379 46.1499938965 55.9100036621 94.0599975586 vvcurveto
            137.149993896 -93.3899993896 66.6799926758 -181.169998169 vhcurveto
            -206.130004883 -691.380004883 -73 callgsubr
            277.059997559 hlineto
            95.0700073242 vmoveto
            222.490005493 71.0700073242 vlineto
            95.3399963379 43.5700073242 -31.6000061035 -75.4700012207 -82.1300048828 -45.8300018311 -33.2899932861 -82.4199981689 hvcurveto
            endchar
          </CharString>
          <CharString index="66">
            39.5 return
          </CharString>
          <CharString index="67">
            -311.630004883 239.720001221 hstem
            33.3000030518 138.440002441 vstem
            102.850006104 -71.9100036621 rmoveto
            -39.1300048828 -30.4199981689 -30.1100006104 -37.7799987793 -24.0899963379 12.0399932861 -18.7200012207 16.7200012207 -13.6999969482 hvcurveto
            -27.6399993896 -115.320007324 rlineto
            66.9199981689 hlineto
            44.0599975586 91.1000061035 rlineto
            19.6399993896 40.9400024414 6.69999694824 18.0399932861 21.7599945068 vvcurveto
            38.7899932861 -29.7599945068 29.0899963379 -39.1300048828 vhcurveto
            endchar
          </CharString>
          <CharString index="68">
            89 194 callsubr
            97.4100036621 364.970001221 96.4299926758 -14.7099914551 430 callsubr
            207.970001221 134.309997559 hintmask 01110110
            349.220001221 235 callgsubr
            -54.4799957275 -56.8399963379 -25.0399932861 -54.5899963379 -41.4900054932 hvcurveto
            hintmask 10101110
            -7.4700012207 64.9199981689 rlineto
            -111.940002441 -747.130004883 hlineto
            hintmask 01110110
            128 198 callgsubr
            rlineto
            246.479995728 vlineto
            -39.0599975586 33.0899963379 45.4700012207 -18.4400024414 54.6799926758 hhcurveto
            133.289993286 75.75 118.380004883 162.039993286 169.38999939 -58.0500030518 109 -140 hvcurveto
            -47.5899963379 -461.38999939 rmoveto
            -39.8500061035 -32.1799926758 18.5899963379 36.3800048828 -24.6100006104 hvcurveto
            238.509994507 vlineto
            40.5800018311 25.3800048828 36.6900024414 30.8999938965 44.2200012207 hhcurveto
            65.75 35.9299926758 -48.6999969482 -134.289993286 -127.809997559 -40.9100036621 -54.1699981689 -70.4100036621 hvcurveto
            endchar
          </CharString>
          <CharString index="69">
            30 callsubr
            152.130004883 88.3600006104 212.429992676 89.0200042725 149.440002441 -20 hstemhm
            25.4700012207 509.059997559 hintmask 01111100
            462.990005493 452.919998169 rmoveto
            71.5399932861 89.0200042725 -59.8600006104 hlineto
            19.5899963379 149.440002441 rlineto
            -106.869995117 hlineto
            -19.5899963379 -149.440002441 322 callgsubr
            19.5899963379 149.440002441 rlineto
            -106.869995117 hlineto
            -19.5899963379 -149.440002441 rlineto
            -73.6699981689 -89.0200042725 61.9900054932 hlineto
            -27.8500061035 -212.429992676 rlineto
            -71.1399993896 -88.3600006104 59.5500030518 hlineto
            -19.9499969482 -152.130004883 438 callgsubr
            152.130004883 rlineto
            124.789993286 hlineto
            hintmask 10111100
            -19.9499969482 -152.13999939 438 callgsubr
            152.13999939 rlineto
            73.9799957275 88.3600006104 -62.3899993896 hlineto
            -79.0099945068 212.429992676 rmoveto
            -27.8600006104 -212.429992676 322 callgsubr
            27.8600006104 212.429992676 rlineto
            endchar
          </CharString>
          <CharString index="70">
            rmoveto
            102.809997559 -439.529998779 -105.809997559 291.020004272 vlineto
            -324.300003052 -484.089996338 rlineto
            -101.470001221 461.809997559 313 callsubr
            108.169998169 rlineto
            -322.320007324 hlineto
            endchar
          </CharString>
          <CharString index="71">
            -71 callsubr
            101.630004883 138 hstemhm
            110 -80 callgsubr
            hintmask 11011110
            180.5 -27 callsubr
            2.22999572754 -612.910003662 -96 callgsubr
            hintmask 11101110
            21 callsubr
          </CharString>
          <CharString index="72">
            rmoveto
            -229.039993286 hlineto
            -45.9600067139 202.059997559 rlineto
            227.039993286 97.3899993896 -249.199996948 hlineto
            -44.1399993896 194.080001831 rlineto
            287.940002441 hlineto
            191 callgsubr
            98.75 rlineto
            -495.679992676 hlineto
            -272.979995728 80 callsubr
            140.130004883 hlineto
            56.75 160.089996338 rlineto
            239.559997559 hlineto
            32.1999969482 -160.089996338 rlineto
            338.979995728 hlineto
            -391.240005493 259.850006104 rmoveto
            -184.13999939 hlineto
            117.490005493 331.410003662 rlineto
            endchar
          </CharString>
          <CharString index="73">
            rmoveto
            -201.339996338 hlineto
            -32.4700012207 149.100006104 rlineto
            193.509994507 91.0399932861 -213.330001831 hlineto
            -30.7299957275 141.11000061 rlineto
            238 338 callgsubr
            -440.979995728 hlineto
            -235.979995728 197 callgsubr
            465 callsubr
            hintmask 11111000
            45.9900054932 124.779998779 rlineto
            197.559997559 hlineto
            25.0099945068 -124.779998779 rlineto
            304.949996948 hlineto
            -348.679992676 218.169998169 rmoveto
            -144.419998169 hlineto
            93.5500030518 253.789993286 rlineto
            endchar
          </CharString>
          <CharString index="74">
            3 78 callgsubr
            566.379989624 -20 hstem
            292 callgsubr
            45 callsubr
            vstem
            318.529998779 213.619995117 rmoveto
            193 352.75 rlineto
            -135.039993286 hlineto
            -118.630004883 -254.339996338 -119.940002441 254.339996338 rlineto
            -139.720001221 hlineto
            192 -353.75 rlineto
            -212.630004883 139 callgsubr
          </CharString>
          <CharString index="75">
            32 0 100.429992676 215.460006714 71.8800048828 198.569992065 383 callsubr
            hstem
            115.88999939 125.970001221 vstem
            241.86000061 315.88999939 rmoveto
            195.440002441 71.8800048828 -195.440002441 99.1000061035 hlineto
            63.8500061035 29.8500061035 35.6199951172 56.8699951172 42.8699951172 29.9499969482 -15.3000030518 -37.6799926758 28.6199951172 vhcurveto
            80.6999969482 412 callsubr
            rlineto
            62.0899963379 -48.6799926758 -61.0500030518 29.7400054932 -82.8500061035 hhcurveto
            -132.529998779 -69.7200012207 -84.1000061035 -113.789993286 hvcurveto
            -99.1100006104 -67.0200042725 -71.8899993896 67.0200042725 -95.6000061035 vlineto
            379 callgsubr
            -9.91999816895 -29.0800018311 -72.7599945068 -23.6399993896 vhcurveto
            476 callsubr
            444.100006104 vlineto
            14.7299957275 100.429992676 rlineto
            -312.869995117 165 callgsubr
            59.9100036621 vvcurveto
            endchar
          </CharString>
          <CharString index="76">
            -157.509994507 246.509994507 -78.7100067139 -21 21.5900115967 -21 453.619995117 244.5 -148.380004883 -20 434 callsubr
            -20 hstemhm
            71 135.5 61.5 98 hintmask 00000000
            hintmask 10010011
            430.5 129.5 rmoveto
            -28 81 callsubr
            -28.5 -12.5 -40 hhcurveto
            -72 -47 45 251 callsubr
            251 callsubr
            45 54.5 180 callgsubr
            40 32 -12.5 -33 callgsubr
            34 hvcurveto
            hintmask 00100111
            112 callgsubr
            79 -37.2100067139 31.5700073242 -39.75 18.8500061035 -46.5399932861 7.41999816895 rlinecurve
            hintmask 00110011
            147.660003662 -98 vlineto
            hintmask 00101011
            -148.380004883 vlineto
            -122.740005493 -22.5299987793 -74.2599945068 -107.669998169 -148.919998169 vvcurveto
            -148.990005493 73.4400024414 -100.020004272 122.559997559 -21.6100006104 vhcurveto
            hintmask 10000111
            -147.38999939 99 vlineto
            hintmask 01000111
            146.800003052 vlineto
            46.9199981689 7.83000183105 40.5800018311 19.6999969482 36 29.1699981689 rrcurveto
            endchar
          </CharString>
          <CharString index="77">
            rmoveto
            -41 callsubr
            482 callsubr
            38.5 309 callsubr
            -101 callsubr
            -51 callgsubr
            -39 -31.5 -30.5 -38.5 -38.5 31.5 144 callsubr
            hintmask 11111100
            60 callgsubr
            hintmask 11111010
            return
          </CharString>
          <CharString index="78">
            -207.5 -26 127 callgsubr
            455 callgsubr
            -38.5 31 -30.5 -41 callsubr
            -41 callsubr
            482 callsubr
            38.5 309 callsubr
            -101 callsubr
            -51 callgsubr
            hvcurveto
            228 hmoveto
            -39 455 callgsubr
            -38.5 31 -30.5 39 40 482 callsubr
            38.5 309 callsubr
            -101 callsubr
            -40 hvcurveto
            return
          </CharString>
          <CharString index="79">
            107.080001831 -12.0399932861 87.0899963379 -15.6600036621 83.9400024414 vhcurveto
            endchar
          </CharString>
          <CharString index="80">
            773 -104 callgsubr
            return
          </CharString>
          <CharString index="81">
            184 36 callsubr
            223.510009766 263 callgsubr
            212.88999939 350 callgsubr
            137.210006714 331.349990845 136.529998779 3 callsubr
            95.2200012207 60.3000030518 -61.4299926758 -151.460006714 9.88000488281 hvcurveto
            -330.740005493 hlineto
            151.589996338 10.2599945068 61.7599945068 61.3000030518 93.3099975586 hhcurveto
            -518.630004883 vmoveto
            -93.8600006104 -64.1300048828 63.3699951172 160.13999939 -8.00999450684 hvcurveto
            332.020004272 hlineto
            -160.289993286 -7.75 -61.3999938965 -63.2200012207 -96.8600006104 hhcurveto
            endchar
          </CharString>
          <CharString index="82">
            184.630004883 318.350006104 rlineto
            -141.059997559 hlineto
            -121.320007324 -238.960006714 -117.600006104 238.960006714 rlineto
            -146.380004883 hlineto
            183.570007324 -323.690002441 -199.869995117 -367.679992676 rlineto
            141.38999939 hlineto
            136.88999939 282.580001831 137.600006104 -282.580001831 rlineto
            return
          </CharString>
          <CharString index="83">
            rmoveto
            72 callgsubr
            91 -290.5 hlineto
            return
          </CharString>
          <CharString index="84">
            -117.979995728 -134.38999939 -226.660003662 return
          </CharString>
          <CharString index="85">
            -76 callsubr
            97.0899963379 return
          </CharString>
          <CharString index="86">
            529.369995117 return
          </CharString>
          <CharString index="87">
            -10 407 callgsubr
            382 callgsubr
            497.559997559 vstem
            357.130004883 hmoveto
            140.339996338 hlineto
            -176.570007324 306.020004272 160.970001221 260.350006104 rlineto
            -136.020004272 hlineto
            -98.3399963379 -182.679992676 -93.9600067139 182.679992676 rlineto
            -139.339996338 448 callgsubr
            -264.690002441 -172.539993286 -301.679992676 rlineto
            136.020004272 hlineto
            110.410003662 218.960006714 rlineto
            endchar
          </CharString>
          <CharString index="88">
            -121 -217.759994507 325 callgsubr
            880.349990845 408 callsubr
            125.809997559 126.020004272 vstem
            299.539993286 857.429992676 rmoveto
            -113 -60.7299957275 -60.8699951172 -113.220001221 hvcurveto
            -735.020004272 vlineto
            -46.0399932861 -19.9600067139 -22.2899932861 -40.6399993896 -26.3200073242 -23 4.67999267578 15 -32.6600036621 vhcurveto
            -36.8099975586 -86.6999969482 rlineto
            -19.0200042725 40 36.1499938965 -11.7100067139 56.7700042725 hhcurveto
            100.529998779 71.9600067139 52.4299926758 117.039993286 hvcurveto
            735.020004272 vlineto
            49 16.3399963379 24.6100006104 47.8899993896 26.9799957275 26.3000030518 -5.33999633789 -14.6600036621 32.9799957275 vhcurveto
            36.1499938965 86.0399932861 rlineto
            19.3399963379 -42.3399963379 -40.4700012207 11.7100067139 -56.1199951172 hhcurveto
            endchar
          </CharString>
          <CharString index="89">
            129.320007324 vstem
            358.449996948 314 callsubr
            -170.619995117 -144.720001221 -126.369995117 -233.36000061 -237.660003662 107.949996948 -123.419998169 192.050003052 93.6100006104 81.8500061035 25.6999969482 41.7599945068 67.0700073242 hvcurveto
            338.429992676 -247.369995117 vlineto
            13.7100067139 -98.0500030518 rlineto
            104.339996338 -179.830001831 hlineto
            -18.9299926758 -33.2200012207 -37.8500061035 -7.97999572754 -39.5500030518 hhcurveto
            -107.410003662 -56.4700012207 70.4700012207 189.169998169 186.020004272 84.0500030518 73.6399993896 97.9799957275 58.9499969482 188 callgsubr
            31.4199981689 -97.0800018311 hhcurveto
            return
          </CharString>
          <CharString index="90">
            rmoveto
            -80.5099945068 -62.7200012207 -25.3600006104 -40.3600006104 -50.3699951172 hvcurveto
            54.8999938965 -75.9400024414 rlineto
            34.2799987793 45.6799926758 40.9799957275 12 48 hhcurveto
            72.0599975586 40.4199981689 -43.3699951172 -100.839996338 6.41000366211 hvcurveto
            -342.75 hlineto
            -2 -15.6999969482 -0.679992675781 -19.7299957275 -17 vvcurveto
            -168.440002441 92.1100006104 -98.3600006104 141.490005493 151.25 88.3399963379 114.830001831 165.25 166.660003662 -75.4199981689 112.070007324 -167.190002441 vhcurveto
            3.02000427246 -464.75 rmoveto
            -70.1499938965 -40.5099945068 49.8699951172 84.6999969482 -0.679992675781 hvcurveto
            7.66000366211 223.440002441 vlineto
            -104.270004272 -5.28999328613 -40.0200042725 -37.9600067139 -66.7899932861 hhcurveto
            endchar
          </CharString>
          <CharString index="91">
            rmoveto
            -45.1199951172 -35.4299926758 -36.4400024414 -44.1100006104 -44.7799987793 35.4299926758 -36.4299926758 45.1199951172 45.7700042725 35.4400024414 36.4299926758 44.7799987793 44.1100006104 -35.4400024414 36.4400024414 -45.7700042725 hvcurveto
            return
          </CharString>
          <CharString index="92">
            872 rmoveto
            -48.5 56 -130.5 -82.5 -130 82.5 -49 -56 139 -120.5 rlineto
            80.5 hlineto
            return
          </CharString>
          <CharString index="93">
            -5 144 97.5 -36 96.5 41.5 97.5 -36 96.5 hstemhm
            25 452.5 hintmask 01011000
            174.5 501.5 rmoveto
            364 callsubr
            -26 hvcurveto
            75 -51 callgsubr
            rlineto
            29 16 16 27 -40 callgsubr
            43.5 32 -61.5 222 callgsubr
            hhcurveto
            hintmask 01101000
            79 43 57 173 callsubr
            26 hvcurveto
            -75.5 -41 callsubr
            rlineto
            -29 -16 -16 196 callgsubr
            -34 hhcurveto
            hintmask 01011000
            -46 -31.5 60.5 -84 hhcurveto
            473 callgsubr
            vmoveto
            364 callsubr
            -26 hvcurveto
            75 -51 callgsubr
            rlineto
            29 16 16 27 -40 callgsubr
            43.5 32 -61.5 222 callgsubr
            hhcurveto
            hintmask 10011000
            79 43 57 173 callsubr
            26 hvcurveto
            -75.5 -41 callsubr
            rlineto
            -29 -16 -16 196 callgsubr
            -34 hhcurveto
            hintmask 01011000
            -46 -31.5 60.5 -84 hhcurveto
            endchar
          </CharString>
          <CharString index="94">
            rmoveto
            94.25 61.6199951172 64.2899932861 80.1100006104 8 hvcurveto
            -75.2599945068 14.3600006104 rlineto
            -38.9799957275 -12.9799957275 -29.3000030518 -28.0399932861 -46.3200073242 hhcurveto
            -46.3200073242 -27.3200073242 28.0399932861 38.9799957275 -12.9799957275 hvcurveto
            -75.2700042725 -14.3600006104 rlineto
            -80.1100006104 8 60.3000030518 -64.2899932861 93.5899963379 hhcurveto
            endchar
          </CharString>
          <CharString index="95">
            -1.52587890625e-05 -20 return
          </CharString>
          <CharString index="96">
            0 120.470001221 -99.4700012207 -21 767.190002441 100.429992676 hstemhm
            26.0399932861 715.75 hintmask 01110000
            741.789993286 767.190002441 rmoveto
            100.429992676 -280.25 vlineto
            hintmask 10110000
            -199.470001221 -747.149993896 -119.710006714 375.080001831 -116.320007324 -36.1699981689 167.679992676 -459.380004883 rlineto
            145.429992676 hlineto
            215.589996338 767.190002441 rlineto
            endchar
          </CharString>
          <CharString index="97">
            vvcurveto
            -32 -18.5 -21.5 -38 -30 -19.5 9 8 -15.5 vhcurveto
            -33 callgsubr
            -67.5 rlineto
            -14.5 25.5 34.5 -11 44 hhcurveto
            83 56 46 73 return
          </CharString>
          <CharString index="98">
            rmoveto
            hintmask 11011010
            -74 callsubr
            -91 callgsubr
            hintmask 11010110
            -102 callgsubr
            return
          </CharString>
          <CharString index="99">
            rmoveto
            136 callsubr
            -35 410 callgsubr
            -45 35 81 callsubr
            250 callsubr
            250 callsubr
            148 callgsubr
            45 159 callgsubr
            136 callsubr
            hvcurveto
            return
          </CharString>
          <CharString index="100">
            23 0 99.0899963379 203.400009155 97.3899993896 192.739990234 98.75 14 callsubr
            467.770004272 592.619995117 206 callgsubr
            98.75 rlineto
            -401.529998779 -47 callsubr
            405.11000061 99.0899963379 -272.410003662 203.399993896 221.809997559 97.3899993896 -221.809997559 192.740005493 hlineto
            endchar
          </CharString>
          <CharString index="101">
            -90 644.449996948 93.1000061035 -46.8000030518 93.1000061035 -36.4200134277 -20 hstemhm
            30 357.089996338 hintmask 00000000
            hintmask 10010000
            269.539993286 644.449996948 rmoveto
            hintmask 00110000
            49.8099975586 41.7400054932 40.5500030518 62.4299926758 26 hvcurveto
            hintmask 10010000
            -68.5700073242 33.7799987793 rlineto
            -29.3200073242 -17.3200073242 -13.9799957275 -14.3399963379 -21.3600006104 hhcurveto
            hintmask 01010000
            -34.9600067139 -21.9600067139 46.3000030518 -58.4100036621 hhcurveto
            -56.1000061035 -40.4100036621 -47.1499938965 -57.1499938965 -24.0200042725 hvcurveto
            68.5599975586 -33.7799987793 rlineto
            29.3200073242 16 13.3200073242 15.6600036621 23.6799926758 hhcurveto
            hintmask 10010000
            34.3000030518 21.9600067139 -46.3000030518 61.7200012207 hhcurveto
            endchar
          </CharString>
          <CharString index="102">
            -12.5 hvcurveto
            -75.5 return
          </CharString>
          <CharString index="103">
            78 21 -21 447.5 96.5 56.5599975586 263 callgsubr
            57.2100067139 -20 33.5 -20 hstemhm
            81 128 176 128 hintmask 11101110
            363.5 544 rmoveto
            -63.6499938965 -50.3399963379 -28.4900054932 -49.6499938965 -40.5099945068 hvcurveto
            134.699996948 135.429992676 vlineto
            11.6999969482 263 callgsubr
            rlineto
            -147.130004883 70.7100067139 hlineto
            hintmask 11110110
            -128 -13.5 rlineto
            -57.2100067139 -67.8800048828 -82.2299957275 67.8800048828 -600.559997559 128 369 vlineto
            48.5 31 35 30 271 callsubr
            hhcurveto
            39 26.5 -18.5 -66.5 hvcurveto
            -362.5 128 383.5 vlineto
            hintmask 11101110
            100 -56 60.5 -93.5 vhcurveto
            endchar
          </CharString>
          <CharString index="104">
            15 374.539993286 78.6499938965 174.620010376 78.2700042725 hstem
            46.5099945068 94.3200073242 154.979995728 94.3200073242 vstem
            218.320007324 374.539993286 rmoveto
            86.3699951172 85.4400024414 60.4199981689 105.369995117 105.380004883 -85.4400024414 60.3699951172 -86.3699951172 -85.7200012207 -86.0899963379 -59.7100067139 -105.380004883 -105.369995117 86.0899963379 -61.0800018311 85.7200012207 hvcurveto
            78.6499938965 vmoveto
            -43.3000030518 327 callgsubr
            31 56.8099975586 56.8099975586 34.1900024414 30 43.3000030518 43.9600067139 33.5299987793 -31.3200073242 -56.1499938965 -56.1499938965 -33.5299987793 -31 -43.9600067139 hvcurveto
            endchar
          </CharString>
          <CharString index="105">
            -5 240.149993896 97.4499969482 -36.129989624 96.7899932861 hstemhm
            24.8099975586 452.63999939 hintmask 01100000
            174.710006714 398.259994507 rmoveto
            -80.0899963379 -43.7200012207 -61.0899963379 -52.2100067139 -26.0899963379 hvcurveto
            75.2599945068 -39.1499938965 rlineto
            29.0200042725 16 15.9600067139 26.6399993896 36.3399963379 43.7599945068 31.6199951172 -61.3200073242 85.7799987793 hhcurveto
            hintmask 10100000
            78.7700042725 43.0599975586 57.1300048828 52.2100067139 26.0899963379 hvcurveto
            -75.2599945068 39.8099975586 rlineto
            -29.0200042725 -16 -15.9600067139 -22.6799926758 -34.3600006104 hhcurveto
            hintmask 01100000
            -45.7400054932 -31.6199951172 60.6600036621 -83.8000030518 hhcurveto
            endchar
          </CharString>
          <CharString index="106">
            rmoveto
            -108 -57 -78 -140.5 -140.5 57 -79 108 107.5 57 79 140.5 141 -57 77.5 252 callgsubr
            hvcurveto
            -73.5 vmoveto
            42 20 -31.5 -113.5 -113 -20 -32.5 -42 -42.5 -18.5 34.5 111 110 18.5 35 42.5 hvcurveto
            endchar
          </CharString>
          <CharString index="107">
            165 21 -21 308.729995728 178 callgsubr
            -58 callgsubr
            245.510009766 204 callsubr
            return
          </CharString>
          <CharString index="108">
            347 callsubr
            85 callsubr
            127.660003662 196.88999939 129.320007324 vstem
            return
          </CharString>
          <CharString index="109">
            -19 callgsubr
            145 callgsubr
            264.400009155 133.330001831 return
          </CharString>
          <CharString index="110">
            vstem
            345.660003662 706.089996338 -102 callsubr
            return
          </CharString>
          <CharString index="111">
            -205 -239.470001221 85.2799987793 175.190002441 -21 hstem
            -2.63000488281 98.3399963379 vstem
            196.220001221 42.5099945068 rmoveto
            -126.279998779 -35.9600067139 -72.5700073242 -52.3399963379 -84.1900024414 vvcurveto
            -65.4700012207 55.4700012207 -44.0200042725 81.4199981689 26.3399963379 19.7100067139 3 4.33999633789 20.6799926758 vhcurveto
            10.0200042725 85.2799987793 rlineto
            -5 -23.3200073242 -17.3600006104 -2.33999633789 -20.3200073242 hhcurveto
            -37.9400024414 -16.3600006104 16.6399993896 30 31.9299926758 20.3200073242 35.6999969482 99.9600067139 39.9199981689 hvcurveto
            endchar
          </CharString>
          <CharString index="112">
            819 rmoveto
            -211 117 -50.5 -100 229 -83 rlineto
            return
          </CharString>
          <CharString index="113">
            70 139 callsubr
            96.4600067139 -60.7300109863 50 callsubr
            return
          </CharString>
          <CharString index="114">
            rlineto
            24.3000030518 36.6399993896 35.6300048828 14.9600067139 51.2200012207 hhcurveto
            49.1699981689 37.8099975586 -16.9799957275 -46.1499938965 -49.1499938965 -41.4100036621 -21.3000030518 -58.4900054932 hvcurveto
            -58.4199981689 hlineto
            -7.69999694824 -88.3000030518 rlineto
            77.1300048828 hlineto
            return
          </CharString>
          <CharString index="115">
            232 0 96.4199981689 -75.4299926758 -21 433.949996948 132.429992676 0 -20 20.6600036621 -20 20.0099945068 -20 return
          </CharString>
          <CharString index="116">
            893.5 rmoveto
            -212.5 117.5 -50.5 -100 228 -83.5 rlineto
            hintmask 11110100
            -29 callsubr
            hintmask 11101000
            return
          </CharString>
          <CharString index="117">
            48 callgsubr
            326.339996338 142 callsubr
            return
          </CharString>
          <CharString index="118">
            hstemhm
            -76 callgsubr
            return
          </CharString>
          <CharString index="119">
            195.899993896 398.88999939 rlineto
            -6.41000366211 -26.6100006104 -10.3600006104 -74.2200012207 -86.5500030518 vvcurveto
            -211.509994507 vlineto
            endchar
          </CharString>
          <CharString index="120">
            68.5399932861 254.850006104 rlineto
            endchar
          </CharString>
          <CharString index="121">
            -58 callgsubr
            vstem
            return
          </CharString>
          <CharString index="122">
            12.7400054932 99.1000061035 rlineto
            -451.039993286 -99.1000061035 159.169998169 return
          </CharString>
          <CharString index="123">
            -132.699996948 -47 callsubr
            return
          </CharString>
          <CharString index="124">
            rmoveto
            13.7400054932 341 callsubr
            -513.059997559 -105.789993286 186.830001831 -585.580001831 261 callsubr
            hlineto
            return
          </CharString>
          <CharString index="125">
            -31 -76 callsubr
            95.0599975586 369.010009766 94.7400054932 hstem
            39.5099945068 129.949996948 147.200012207 132.660003662 vstem
            return
          </CharString>
          <CharString index="126">
            82 callsubr
            57.5599975586 78.6799926758 rlineto
            42.3600006104 -49.6799926758 -53.7299957275 19.3899993896 -68.7899932861 hhcurveto
            -151.830001831 -94.4700012207 -115.38999939 -168.339996338 return
          </CharString>
          <CharString index="127">
            16.5 11 callgsubr
            return
          </CharString>
          <CharString index="128">
            88.1799926758 330.449996948 rlineto
            endchar
          </CharString>
          <CharString index="129">
            -20 hstem
            -76 callgsubr
            return
          </CharString>
          <CharString index="130">
            78 442 callsubr
            35.0599975586 -21 224.699996948 366 callsubr
            252 callsubr
            -2.0299987793 -20 22.0400085449 -20 return
          </CharString>
          <CharString index="131">
            54 callsubr
            85 callsubr
            142 callgsubr
            return
          </CharString>
          <CharString index="132">
            315 callsubr
            105.470001221 513.570007324 101.770004272 171 callsubr
            142 callsubr
            vstem
            return
          </CharString>
          <CharString index="133">
            rmoveto
            -62.5 -89 -56.5 -87 -149.5 vvcurveto
            -149.5 56.5 -87 62.5 -89 vhcurveto
            61 41 rlineto
            -52.5 81 -31.5 78 125.5 vvcurveto
            125.5 31.5 78 173 callsubr
            81 vhcurveto
            endchar
          </CharString>
          <CharString index="134">
            228 21 -21 228.38999939 92.0800018311 153.509994507 92.3899993896 -92.3899993896 92.5200042725 11 callsubr
            317.699996948 128.5 hintmask 11101100
            654.5 hmoveto
            hintmask 11011100
            566.5 -128.5 -566.5 vlineto
            hintmask 11101100
            -110.960006714 473.979995728 21 callgsubr
          </CharString>
          <CharString index="135">
            rmoveto
            -385 172.5 -42 -95 321 -136.5 -321 -135 42 -96.5 385 172 rlineto
            return
          </CharString>
          <CharString index="136">
            91 -76 callsubr
            96.0899963379 366.620010376 96.1000061035 -14.7200164795 -20 return
          </CharString>
          <CharString index="137">
            78 callgsubr
            21.0099945068 -21 return
          </CharString>
          <CharString index="138">
            101.070007324 -12 callsubr
            return
          </CharString>
          <CharString index="139">
            163.25 261.949996948 rlineto
            -128.589996338 hlineto
            -139.559997559 -225.88999939 rlineto
            -57.0399932861 225.88999939 -118.61000061 -225.88999939 -56.3699951172 hlineto
            -136.88999939 225.88999939 rlineto
            -130.919998169 hlineto
            162.899993896 -261.949996948 -181.559997559 -304.429992676 rlineto
            139.679992676 hlineto
            145.429992676 252.149993896 rlineto
            57.7400054932 -252.149993896 118.600006104 252.149993896 57.0599975586 hlineto
            144.089996338 -252.149993896 rlineto
            return
          </CharString>
          <CharString index="140">
            281.770004272 290 callsubr
            19.8999938965 520.190002441 vstem
            19.8999938965 384.220001221 rmoveto
            -102.449996948 520.190002441 221 callsubr
            vlineto
            endchar
          </CharString>
          <CharString index="141">
            13 21 -21 151.190002441 231 callsubr
            168.579986572 231 callsubr
            hstem
            199.789993286 120.600006104 vstem
            320.38999939 424.619995117 rmoveto
            166.960006714 231 callsubr
            -166.960006714 143.270004272 -120.600006104 -143.270004272 -166.960006714 -104.850006104 166.960006714 -168.580001831 -166.960006714 -104.850006104 166.960006714 -151.190002441 120.600006104 151.190002441 166.960006714 231 callsubr
            -166.960006714 hlineto
            endchar
          </CharString>
          <CharString index="142">
            15 callsubr
            -468.279998779 return
          </CharString>
          <CharString index="143">
            -76 callsubr
            101.089996338 return
          </CharString>
          <CharString index="144">
            477.029998779 566.369995117 408 callgsubr
            -265.660003662 hlineto
            -19.7599945068 -23.0800018311 -31.9600067139 -13.9799957275 -47.5399932861 hhcurveto
            -61.8500061035 -30.1900024414 29.6300048828 69.2400054932 hvcurveto
            200.529998779 327 callsubr
            -203.149993896 vlineto
            -118.190002441 68.6600036621 -73.7700042725 114.789993286 56.1499938965 39.4900054932 14.7899932861 30.3000030518 41.8300018311 vhcurveto
            -216.36000061 167 callgsubr
            vlineto
            return
          </CharString>
          <CharString index="145">
            647 39 callgsubr
            return
          </CharString>
          <CharString index="146">
            330 0 105.410003662 445.440002441 140.520004272 -12 callsubr
            hstemhm
            16.5099945068 804.190002441 hintmask 10110000
            return
          </CharString>
          <CharString index="147">
            -193.240005493 -398.259994507 rlineto
            6.75 27.2599945068 9.36000061035 79.1900024414 78.9499969482 vvcurveto
            return
          </CharString>
          <CharString index="148">
            hhcurveto
            72.1300048828 30.8099975586 return
          </CharString>
          <CharString index="149">
            95 219 callgsubr
            776.660003662 99.7700042725 hstemhm
            112.36000061 378 callsubr
            136.130004883 122.270004272 hintmask 01111000
            493.020004272 572.960006714 rmoveto
            66.3200073242 99.7700042725 -516.61000061 -99.7700042725 69.6300048828 hlineto
            hintmask 10111000
            -790.720001221 vlineto
            hintmask 01111000
            378 callsubr
            197 callsubr
            rlineto
            776.660003662 136.130004883 vlineto
            hintmask 10111000
            -790.720001221 vlineto
            hintmask 01111000
            122.270004272 197 callsubr
            rlineto
            endchar
          </CharString>
          <CharString index="150">
            -218 98 880.5 97 hstem
            213 126 vstem
            387 857.5 rmoveto
            -113 -61 -61 -113 hvcurveto
            -735 vlineto
            -46 -20 196 callgsubr
            -40.5 -26.5 -23 4.5 15 -32.5 vhcurveto
            -37 -86.5 rlineto
            -19 40 -40 callgsubr
            -12 56.5 hhcurveto
            161 callsubr
            72 173 callsubr
            117 hvcurveto
            735 vlineto
            49 -8 callgsubr
            25 48 27 26 -5.5 -14.5 33 vhcurveto
            36 86 rlineto
            19 -42 -40.5 12 -56 hhcurveto
            endchar
          </CharString>
          <CharString index="151">
            -46 hhcurveto
            -52 callgsubr
            -33 callgsubr
            return
          </CharString>
          <CharString index="152">
            128.320007324 return
          </CharString>
          <CharString index="153">
            432 rmoveto
            153.5 -110 -153.5 -148.5 -101 148.5 -153 110 153 149 101 vlineto
            -408 -330 rmoveto
            -102 401 102 vlineto
            endchar
          </CharString>
          <CharString index="154">
            529.369995117 354 callgsubr
            vlineto
            endchar
          </CharString>
          <CharString index="155">
            149.470001221 245.36000061 rlineto
            -128.850006104 hlineto
            -122.809997559 -209.630004883 rlineto
            -59.8300018311 209.630004883 339 callsubr
            234.850006104 56.8099975586 hlineto
            129.36000061 -234.850006104 rlineto
            return
          </CharString>
          <CharString index="156">
            253.580001831 -131.339996338 -258.210006714 vlineto
            -137.529998779 79.6600036621 -86.1100006104 129.130004883 return
          </CharString>
          <CharString index="157">
            -21 -21 callsubr
            -20 return
          </CharString>
          <CharString index="158">
            240 97.5 -36 97 hstemhm
            53.5 453 hintmask 01100000
            203.5 398.5 rmoveto
            -80 -43.5 -61.5 -52 -26.5 hvcurveto
            172 callsubr
            -39 rlineto
            29 16 16 26.5 36 hhcurveto
            hintmask 10100000
            44 31.5 -61.5 86 hhcurveto
            323 callsubr
            43 112 callgsubr
            52 456 callgsubr
            40 rlineto
            -29 -16 -16 -23 170 callgsubr
            hhcurveto
            hintmask 01100000
            484 callsubr
            61 -84 hhcurveto
            endchar
          </CharString>
          <CharString index="159">
            -38 callgsubr
            hhcurveto
            return
          </CharString>
          <CharString index="160">
            67 21 -21 206 callsubr
            hstem
            220.199996948 142 callgsubr
            return
          </CharString>
          <CharString index="161">
            -212 21 96 callsubr
            return
          </CharString>
          <CharString index="162">
            -60 0 95.4100036621 376.910003662 94.0500030518 hstem
            28.1100006104 390.36000061 vstem
            418.470001221 472.320007324 rmoveto
            94.0500030518 -390.36000061 -93.7100067139 vlineto
            172.710006714 -194.320007324 -172.710006714 -184.949996948 rlineto
            -93.3899993896 390.36000061 95.4100036621 -250.339996338 vlineto
            152.710006714 157.910003662 rlineto
            53.6999969482 vlineto
            -151.699996948 165.300003052 rlineto
            endchar
          </CharString>
          <CharString index="163">
            189.929992676 438.809997559 rlineto
            -8.05999755859 -55.1499938965 -10.3699951172 -65.2700042725 -97.7899932861 vvcurveto
            -220.600006104 vlineto
            endchar
          </CharString>
          <CharString index="164">
            66 callgsubr
            -265.949996948 return
          </CharString>
          <CharString index="165">
            6 0 100.419998169 471.900009155 292 callsubr
            hstem
            39.8099975586 432.88999939 vstem
            472.699996948 572.320007324 rmoveto
            292 callsubr
            -432.88999939 -97.6999969482 vlineto
            198.570007324 -239.339996338 -198.570007324 -238 rlineto
            -97.6999969482 432.88999939 100.419998169 -289.88999939 vlineto
            174.149993896 211.529998779 rlineto
            51.5099945068 vlineto
            -174.149993896 208.869995117 rlineto
            endchar
          </CharString>
          <CharString index="166">
            -86.9100036621 -15.6100006104 -43.7299957275 -90.3200073242 -35.3200073242 vhcurveto
            35.1900024414 -94.8099975586 rlineto
            114.399993896 36.6999969482 89.0399932861 58.0700073242 160.979995728 vvcurveto
            return
          </CharString>
          <CharString index="167">
            2 100 callsubr
            99.1199951172 397.260009766 95.4100036621 200 callsubr
            vstem
            return
          </CharString>
          <CharString index="168">
            rmoveto
            -42 95 -385 -172.5 rlineto
            -118.5 vlineto
            385 -172 42 96.5 return
          </CharString>
          <CharString index="169">
            -18.5899963379 -66.4299926758 hvcurveto
            return
          </CharString>
          <CharString index="170">
            109 callsubr
            176.959991455 167 callgsubr
            return
          </CharString>
          <CharString index="171">
            -70.8300018311 -72.5099945068 -48.5700073242 -42.1900024414 -82.7700042725 -61.5500030518 -46.2400054932 22.9600067139 40.9799957275 -41.3600006104 hvcurveto
            -73.3200073242 -70.9799957275 rlineto
            return
          </CharString>
          <CharString index="172">
            12 -3 27 -5 13 -1 1 4 rcurveline
            -17 15 -23 17 24 vvcurveto
            2 0 2 1 3 vhcurveto
            3 hlineto
            15 -25 31 -22 59 -21 119 -43 4 16 34 -28 rrcurveto
            0 -28 -18 -19 -2 vhcurveto
            -20 4 -84 29 -35 19 -9 -4 -113 -29 -26 -1 -69 9 -52 45 -25 29 -10 3 rcurveline
            -45 56 -61 7 -4 vhcurveto
            39 -16 rlineto
            -5 vlineto
            -22 -13 -43 -25 -39 vvcurveto
            6 -1 16 14 34 15 13 1 rlinecurve
            -1 1 0 -1 vvcurveto
            -17 -26 rlineto
            -12 -2 -17 -5 -14 vhcurveto
            -18 -49 27 14 -18 hvcurveto
            -4 -3 7 -22 35 -44 27 -20 rlinecurve
            return
          </CharString>
          <CharString index="173">
            206 callgsubr
            98.7599945068 rlineto
            return
          </CharString>
          <CharString index="174">
            rmoveto
            -49 callsubr
            171.410003662 vlineto
            146.61000061 147.259994507 57.6999969482 229.320007324 232.339996338 -150.050003052 47.0200042725 -158.100006104 hvcurveto
            -29.4700012207 -93.0800018311 rmoveto
            48.8300018311 hlineto
            86.8699951172 69.6100006104 -31.0500030518 -155.229995728 -155.919998169 -65.6100006104 -38.3399963379 -87.2400054932 hvcurveto
            -52.4600067139 hlineto
            endchar
          </CharString>
          <CharString index="175">
            rmoveto
            -63.3600006104 -33.7799987793 -58.5299987793 -28.4499969482 -124.210006714 3.33999633789 rrcurveto
            return
          </CharString>
          <CharString index="176">
            rmoveto
            130.399993896 -82.6999969482 48.5099945068 55.8699951172 -138.399993896 120.529998779 rlineto
            -80.3600006104 hlineto
            -139.050003052 -120.529998779 49.1699981689 -55.8699951172 rlineto
            endchar
          </CharString>
          <CharString index="177">
            hintmask 01110000
            325 callsubr
            312 callsubr
            16 callsubr
            vlineto
            281 378.410003662 rmoveto
            239.259994507 312.960006714 rlineto
            -143.320007324 hlineto
            -238.899993896 -322.36000061 rlineto
            return
          </CharString>
          <CharString index="178">
            hstem
            70.6300048828 -73 callgsubr
            248.550003052 142 callgsubr
            return
          </CharString>
          <CharString index="179">
            -128 -234.38999939 hlineto
            -26.6399993896 -25.9299926758 -45.6900024414 -17.3600006104 -37.5899963379 hhcurveto
            -44.7700042725 -22.9299926758 21.2200012207 59.1699981689 hvcurveto
            198 -128 -214.089996338 vlineto
            -99.3600006104 48.6399993896 -61.3999938965 390 callsubr
            21.0700073242 32.5099945068 454 callsubr
            return
          </CharString>
          <CharString index="180">
            rmoveto
            -48.5099945068 55.8699951172 -130.399993896 -82.6999969482 -129.729995728 82.6999969482 -49.1699981689 -55.8699951172 139.050003052 -120.529998779 rlineto
            80.3600006104 hlineto
            endchar
          </CharString>
          <CharString index="181">
            68 100 callsubr
            94.3899993896 153.100006104 90.6999969482 159.540008545 94.0599975586 return
          </CharString>
          <CharString index="182">
            -127.660003662 return
          </CharString>
          <CharString index="183">
            -42 callgsubr
            5 callgsubr
            5 callgsubr
            5 callgsubr
            return
          </CharString>
          <CharString index="184">
            49.7100067139 126.619995117 151.679992676 119.929992676 151.680007935 126.619995117 return
          </CharString>
          <CharString index="185">
            rlineto
            -80.5 return
          </CharString>
          <CharString index="186">
            180 callgsubr
            -49.5 99 -79.5 vlineto
            -15.1300048828 -99 rlineto
            -87.3699951172 hlineto
            106 232.5 -84 31 return
          </CharString>
          <CharString index="187">
            -47 callsubr
            rlineto
            return
          </CharString>
          <CharString index="188">
            -36.5 return
          </CharString>
          <CharString index="189">
            402.979995728 129.710006714 rmoveto
            -27.9799957275 -36.6399993896 -28.2899932861 -12.9799957275 -40.2599945068 hhcurveto
            -72.1300048828 -46.9100036621 45.4600067139 127.470001221 127.149993896 45.2100067139 54.4700012207 74.5099945068 39.9299926758 31.9799957275 -12.3200073242 -27.3200073242 33.9799957275 hvcurveto
            return
          </CharString>
          <CharString index="190">
            43.4100036621 return
          </CharString>
          <CharString index="191">
            93 -52 callgsubr
            93 81 callsubr
            -20 hstemhm
            return
          </CharString>
          <CharString index="192">
            hstem
            -80 callsubr
            return
          </CharString>
          <CharString index="193">
            201.309997559 hlineto
            -107.270004272 -7.94000244141 -47.3699951172 -39.9400024414 -64.3200073242 hhcurveto
            -45.5399932861 -30.9600067139 11.9600067139 26.6399993896 -35.9799957275 hvcurveto
            -58.2700042725 -76.6600036621 rlineto
            -37.0200042725 46.7400054932 57.3399963379 -22 70.3899993896 hhcurveto
            161.850006104 85.4700012207 return
          </CharString>
          <CharString index="194">
            -41.7899932861 -34.0800018311 -31.7400054932 -40.7700042725 -26.1199951172 11.7200012207 -19.3699951172 20.0500030518 -14.6999969482 hvcurveto
            -40.6799926758 -153.740005493 rlineto
            71.5500030518 hlineto
            64.9600067139 136.229995728 rlineto
            17.4100036621 36.4900054932 6.03999328613 19.4299926758 21.4400024414 vvcurveto
            return
          </CharString>
          <CharString index="195">
            227 0 92.7299957275 32.0500030518 93.3899993896 23.6600036621 91.0399932861 141.11000061 447 callgsubr
            -18.1199951172 709.929992676 hintmask 10111000
            return
          </CharString>
          <CharString index="196">
            81.4100036621 414.789993286 80.4600067139 -414.789993286 rlineto
            endchar
          </CharString>
          <CharString index="197">
            -21 callsubr
            -128 return
          </CharString>
          <CharString index="198">
            9 280.770004272 101.130004883 153.399993896 -20 hstem
            202.919998169 109.809997559 vstem
            312.729995728 381.899993896 rmoveto
            153.399993896 -109.809997559 -153.399993896 -148.38999939 -101.130004883 148.38999939 -152.729995728 109.809997559 152.729995728 149.059997559 101.130004883 vlineto
            endchar
          </CharString>
          <CharString index="199">
            -124.5 -270.5 rlineto
            -67.5 188.710006714 vlineto
            return
          </CharString>
          <CharString index="200">
            hstemhm
            71.9900054932 128 return
          </CharString>
          <CharString index="201">
            -212 -14.7100067139 102.830001831 -81.8300018311 -21 755.410003662 201 callgsubr
            72 128 return
          </CharString>
          <CharString index="202">
            112 callgsubr
            14 -48 -52 callgsubr
            -48 -14 -47 -57.5 -57.5 -15 48.5 46.5 48 15 46.5 112 callgsubr
            hvcurveto
            return
          </CharString>
          <CharString index="203">
            -21 111 callgsubr
            return
          </CharString>
          <CharString index="204">
            30.6399993896 -46.3600006104 hvcurveto
            -63.2899932861 -74.6600036621 rlineto
            -40.6799926758 53.7200012207 67.3899993896 -24.3000030518 89.3600006104 hhcurveto
            133.869995117 102.679992676 54.3600006104 114.339996338 77.6799926758 -49.6799926758 37.3600006104 -89.0700073242 342 callsubr
            hvcurveto
            return
          </CharString>
          <CharString index="205">
            179.5 101.5 161 callsubr
            102 return
          </CharString>
          <CharString index="206">
            227 0 93.5399932861 321.25 114.580001831 0 -20 hstemhm
            11.5 711.309997559 hintmask 10110000
            return
          </CharString>
          <CharString index="207">
            -13.3800048828 return
          </CharString>
          <CharString index="208">
            -43.6300048828 19.6600036621 46.6600036621 -41.6600036621 hvcurveto
            -72.9799957275 -69.3200073242 rlineto
            -62.6999969482 52.0200042725 73.7400054932 return
          </CharString>
          <CharString index="209">
            157 callsubr
            521.86000061 return
          </CharString>
          <CharString index="210">
            vstem
            280 314 callsubr
            -155.440002441 -82.1499938965 -124.36000061 -235.369995117 -235.039993286 82.1499938965 -126.039993286 155.440002441 155.429992676 82.1499938965 126.039993286 235.039993286 234.710006714 -82.1499938965 125.020004272 -155.429992676 hvcurveto
            return
          </CharString>
          <CharString index="211">
            rmoveto
            -66 callsubr
            return
          </CharString>
          <CharString index="212">
            3 101.410003662 463.169998169 hstem
            41.5099945068 427.169998169 vstem
            468.679992676 469.559997559 rmoveto
            -42.1699981689 95.0200042725 -385 -172.36000061 rlineto
            -118.789993286 vlineto
            385 -172.020004272 42.1699981689 96.4199981689 -320.88999939 135.169998169 rlineto
            endchar
          </CharString>
          <CharString index="213">
            45.9199981689 131.690002441 162.479995728 133.020004272 return
          </CharString>
          <CharString index="214">
            -32 -76 callsubr
            95.0500030518 149.490005493 88.3000030518 133.589996338 92.3800048828 return
          </CharString>
          <CharString index="215">
            -38 callgsubr
            170 callsubr
            190 callsubr
            return
          </CharString>
          <CharString index="216">
            34.8099975586 130.270004272 return
          </CharString>
          <CharString index="217">
            -231 117.979995728 return
          </CharString>
          <CharString index="218">
            134.320007324 return
          </CharString>
          <CharString index="219">
            -15 callgsubr
            endchar
          </CharString>
          <CharString index="220">
            208.300003052 101.770004272 rmoveto
            464.61000061 75 callsubr
            197 callgsubr
            351.149993896 vlineto
            197 callsubr
            201 callsubr
            rlineto
            return
          </CharString>
          <CharString index="221">
            -13.3000030518 -168.229995728 -5.36000061035 -21.2200012207 -62.9600067139 -26.0399932861 31.4900054932 -95.7599945068 rcurveline
            55 callgsubr
            34.3200073242 412 callgsubr
            62.1900024414 18.0200042725 205.759994507 12.2799987793 142.029998779 rcurveline
            return
          </CharString>
          <CharString index="222">
            vvcurveto
            -65.5 55.5 -44 81.5 vhcurveto
            hintmask 11101000
            26 20 3 4.5 20.5 hvcurveto
            10 85 rlineto
            hintmask 11110000
            212 callgsubr
            hintmask 11101000
            return
          </CharString>
          <CharString index="223">
            104 21 -21 277.059997559 95.0700073242 222.489990234 96.7599945068 -58 callgsubr
            209.980010986 138 vstem
            return
          </CharString>
          <CharString index="224">
            744.5 183 callgsubr
            114 callgsubr
            return
          </CharString>
          <CharString index="225">
            -49 callsubr
            vlineto
            return
          </CharString>
          <CharString index="226">
            -226.5 69 vlineto
            -78 callgsubr
            return
          </CharString>
          <CharString index="227">
            hstem
            66.5 427 vstem
            493.5 return
          </CharString>
          <CharString index="228">
            rmoveto
            -75.7400054932 -56.3899993896 -21.3600006104 -38.6999969482 -47.6999969482 hvcurveto
            55.5800018311 -72.9799957275 rlineto
            26.3000030518 38.3000030518 35.9600067139 10.9799957275 42.9299926758 hhcurveto
            68.1799926758 34.7100067139 -42.5800018311 return
          </CharString>
          <CharString index="229">
            71.5 153 94 callgsubr
            172 callsubr
            160 callsubr
            hstem
            38 104.589996338 118.410003662 101 vstem
            236.5 return
          </CharString>
          <CharString index="230">
            -31.9100036621 -60.1499938965 -67.3899993896 -37.8099975586 -26 -59.4900054932 hvcurveto
            endchar
          </CharString>
          <CharString index="231">
            889.5 355 callgsubr
            -101 -174 353 callgsubr
            return
          </CharString>
          <CharString index="232">
            rmoveto
            195.699996948 261.949996948 rlineto
            -132.279998779 hlineto
            -168.320007324 -225.210006714 rlineto
            -50.5099945068 225.210006714 -128 197 callgsubr
            128 251.130004883 50.5399932861 hlineto
            172.869995117 -251.130004883 rlineto
            144.36000061 hlineto
            endchar
          </CharString>
          <CharString index="233">
            93 -52 callgsubr
            93 hstemhm
            return
          </CharString>
          <CharString index="234">
            114.5 384.5 hstem
            88 384 vstem
            472 425.5 rmoveto
            -73 202 callgsubr
            -119 -120.5 -119 120.5 -73 -73.5 120 -119 -120 -119 73 -73 119 120 119 -120 73 73 -120 119 rlineto
            endchar
          </CharString>
          <CharString index="235">
            180.130004883 318.240005493 rlineto
            -133.279998779 hlineto
            -156.080001831 -279.509994507 rlineto
            -84.8099975586 279.509994507 -132.699996948 308 callsubr
            311.11000061 82.4600067139 hlineto
            162.679992676 -311.11000061 rlineto
            return
          </CharString>
          <CharString index="236">
            212.869995117 -123.600006104 173 callgsubr
            138.509994507 vlineto
            return
          </CharString>
          <CharString index="237">
            93 callsubr
            171.569992065 128 return
          </CharString>
          <CharString index="238">
            191 callsubr
            67 60 230 callsubr
            return
          </CharString>
          <CharString index="239">
            -35.5 return
          </CharString>
          <CharString index="240">
            vstem
            305.710006714 326.830001831 rmoveto
            -182.809997559 219.710006714 -78.0899963379 -52.6000061035 131.600006104 -208.300003052 -131.600006104 -208.300003052 78.0899963379 -52.6100006104 182.809997559 219.059997559 rlineto
            return
          </CharString>
          <CharString index="241">
            3 callgsubr
            151 callgsubr
            return
          </CharString>
          <CharString index="242">
            132 callsubr
            -40 callgsubr
            return
          </CharString>
          <CharString index="243">
            -45.5 return
          </CharString>
          <CharString index="244">
            -0.339996337891 vhcurveto
            46.6999969482 47.5099945068 13.0200042725 26.3800048828 return
          </CharString>
          <CharString index="245">
            4.67999267578 -17.0200042725 -17.3000030518 2.33999633789 -18.3600006104 hhcurveto
            return
          </CharString>
          <CharString index="246">
            -14.7299957275 return
          </CharString>
          <CharString index="247">
            -58 21 -21 326 callgsubr
            101.119995117 85 callgsubr
            429.470001221 326 callgsubr
            rmoveto
            15.0399932861 101.119995117 rlineto
            -363.869995117 197 callgsubr
            -71 callgsubr
            326 callgsubr
            hlineto
            endchar
          </CharString>
          <CharString index="248">
            23 21 -21 196 callsubr
            242 callgsubr
            hstem
            413 callgsubr
            204 callsubr
            return
          </CharString>
          <CharString index="249">
            139.369995117 return
          </CharString>
          <CharString index="250">
            -57 callsubr
            -120.589996338 -324.039993286 vlineto
            return
          </CharString>
          <CharString index="251">
            -30.5 39 hvcurveto
            return
          </CharString>
          <CharString index="252">
            695.679992676 663.220001221 172 callgsubr
            -698.979995728 218 callgsubr
            720.529998779 130 callgsubr
            return
          </CharString>
          <CharString index="253">
            97 callgsubr
            81 callsubr
            45 46 return
          </CharString>
          <CharString index="254">
            -20 11 callsubr
            return
          </CharString>
          <CharString index="255">
            189.5 98.5 return
          </CharString>
          <CharString index="256">
            rmoveto
            -211.190002441 116.850006104 -50.5399932861 -99.75 228.899993896 -83.0800018311 rlineto
            endchar
          </CharString>
          <CharString index="257">
            49 21 -21 219.729995728 89.0599975586 167.190002441 90.3899993896 return
          </CharString>
          <CharString index="258">
            110 0 93.6999969482 389.960006714 94.7400054932 return
          </CharString>
          <CharString index="259">
            hvcurveto
            -33 callgsubr
            return
          </CharString>
          <CharString index="260">
            24 50 33 17 21 hvcurveto
            2 -1 10 -2 11 6 7 0 6 hflex1
            18 8 41 101 14 vvcurveto
            11 -6 14 -3 32 vhcurveto
            -2 19 -2 43 -3 9 -15 41 -89 18 -101 43 rrcurveto
            -60 26 -30 34 0 0 3 10 13 vvcurveto
            27 -24 73 -84 -38 -35 -11 -3 -10 vhcurveto
            return
          </CharString>
          <CharString index="261">
            131 -76 callsubr
            101.100006104 206.729995728 98.0599975586 214.509994507 292 callsubr
            return
          </CharString>
          <CharString index="262">
            76.0399932861 19.6600036621 35.7299957275 37.3600006104 61 vvcurveto
            91.6799926758 -92.6799926758 return
          </CharString>
          <CharString index="263">
            hlineto
            20 callsubr
            255.5 return
          </CharString>
          <CharString index="264">
            hstemhm
            -4.52000427246 return
          </CharString>
          <CharString index="265">
            99.1000061035 hstem
            416 callgsubr
            187 callsubr
            return
          </CharString>
          <CharString index="266">
            -8 callgsubr
            -158.5 rlineto
            return
          </CharString>
          <CharString index="267">
            70.5 return
          </CharString>
          <CharString index="268">
            100.5 return
          </CharString>
          <CharString index="269">
            -355 251 callgsubr
            -20 hstem
            -167 486.039993286 vstem
            319.039993286 716.919998169 rmoveto
            -76.6600036621 37.8300018311 -409.380004883 -799 77.3200073242 -37.8300018311 rlineto
            endchar
          </CharString>
          <CharString index="270">
            322 callsubr
            343 callgsubr
            -70.2899932861 -21 493.939987183 94.7299957275 -2.8099822998 354 callsubr
            131.300003052 268.470001221 131.300003052 hintmask 10101100
            return
          </CharString>
          <CharString index="271">
            106 30 callsubr
            -57 callsubr
            187 callgsubr
            return
          </CharString>
          <CharString index="272">
            224 callgsubr
            69 161 callsubr
            202 callgsubr
            return
          </CharString>
          <CharString index="273">
            3 163 callgsubr
            return
          </CharString>
          <CharString index="274">
            77 139 callsubr
            97.0899963379 -73.4199981689 -21 459.050003052 324 callsubr
            -2.67001342773 -20 365 callgsubr
            130.919998169 235.319992065 130.929992676 hintmask 10101100
            return
          </CharString>
          <CharString index="275">
            0.289993286133 -89.5 rlineto
            95.5 return
          </CharString>
          <CharString index="276">
            120.589996338 return
          </CharString>
          <CharString index="277">
            91.5 return
          </CharString>
          <CharString index="278">
            hstem
            -19 callgsubr
            return
          </CharString>
          <CharString index="279">
            75.5 return
          </CharString>
          <CharString index="280">
            52.5 return
          </CharString>
          <CharString index="281">
            13 261.770004272 290 callsubr
            26.2200012207 467.550003052 vstem
            26.2200012207 364.220001221 rmoveto
            -102.449996948 467.550003052 221 callsubr
            vlineto
            endchar
          </CharString>
          <CharString index="282">
            3 281.429992676 101.789993286 hstem
            54.5299987793 401.130004883 vstem
            54.5299987793 383.220001221 rmoveto
            -101.789993286 401.130004883 101.789993286 vlineto
            endchar
          </CharString>
          <CharString index="283">
            -83.7299957275 -62.7599945068 -21 -40.0200042725 -55.3899993896 hvcurveto
            60.2799987793 return
          </CharString>
          <CharString index="284">
            49.6799926758 -57.9799957275 -66.8500061035 return
          </CharString>
          <CharString index="285">
            hstemhm
            44.75 131.630004883 return
          </CharString>
          <CharString index="286">
            103 callgsubr
            rlineto
            return
          </CharString>
          <CharString index="287">
            16 callgsubr
            117.130004883 138 hstemhm
            -51 callgsubr
            140.5 -20.3600006104 45 callsubr
            -19.9600067139 140.5 hintmask 11101000
            return
          </CharString>
          <CharString index="288">
            674.5 rmoveto
            -91 callgsubr
            return
          </CharString>
          <CharString index="289">
            68.9799957275 50.7299957275 33.7799987793 47.75 31.8500061035 hvcurveto
            return
          </CharString>
          <CharString index="290">
            7 -73.8500061035 rlineto
            endchar
          </CharString>
          <CharString index="291">
            331.130004883 196 callsubr
            rmoveto
            179.789993286 hlineto
            13.7299957275 341 callsubr
            -513.050003052 -105.789993286 186.830001831 -585.580001831 return
          </CharString>
          <CharString index="292">
            vstem
            305.5 539 rmoveto
            -78 173 callsubr
            -182.5 -219.5 rlineto
            -83 vlineto
            182.5 217 callgsubr
            return
          </CharString>
          <CharString index="293">
            -20 83.5 -20 hstem
            148 callsubr
            return
          </CharString>
          <CharString index="294">
            -71 callgsubr
            vstem
            return
          </CharString>
          <CharString index="295">
            vlineto
            -99.3600006104 48.6399993896 -61.3899993896 390 callsubr
            21.0599975586 32.5200042725 37.7599945068 vhcurveto
            return
          </CharString>
          <CharString index="296">
            -113 21 -21 418.429992676 302 callsubr
            -13.6999969482 -20 26.6800079346 return
          </CharString>
          <CharString index="297">
            102.5 return
          </CharString>
          <CharString index="298">
            103.5 return
          </CharString>
          <CharString index="299">
            92.8999938965 20.0399932861 52.6300048828 55.4199981689 82.9199981689 vvcurveto
            101.740005493 -79.5299987793 77.6600036621 -144.100006104 return
          </CharString>
          <CharString index="300">
            166 callsubr
            117.119995117 138 hstemhm
            72 140.5 -22.3000030518 45 callsubr
            415 callsubr
            140.5 hintmask 11101000
            return
          </CharString>
          <CharString index="301">
            442 callsubr
            35.0500030518 -21 188.979995728 return
          </CharString>
          <CharString index="302">
            48 -29 38 -69.5 7 return
          </CharString>
          <CharString index="303">
            585.580001831 return
          </CharString>
          <CharString index="304">
            14.0599975586 return
          </CharString>
          <CharString index="305">
            9 5 -27 -18 -24 -9 -20 0 hvcurveto
            0 -70 7 -57 15 vhcurveto
            -77 19 -136 95 -87 72 -50 21 rcurveline
            -3 -3 53 -60 rlineto
            6 -6 12 -17 0 -11 0 -18 -15 -26 -4 flex1
            return
          </CharString>
          <CharString index="306">
            102.910003662 138 365 callgsubr
            return
          </CharString>
          <CharString index="307">
            171 callsubr
            145 callgsubr
            return
          </CharString>
          <CharString index="308">
            101.779998779 return
          </CharString>
          <CharString index="309">
            281.5 101.5 hstem
            227 callsubr
            401 vstem
            227 callsubr
            383 rmoveto
            -101.5 401 101.5 vlineto
            endchar
          </CharString>
          <CharString index="310">
            -73.2100067139 rlineto
            83.3000030518 -79.8099975586 return
          </CharString>
          <CharString index="311">
            -73 callgsubr
            vstem
            return
          </CharString>
          <CharString index="312" raw="1">
            f21d070b   
          </CharString>
          <CharString index="313">
            210 callsubr
            -20 return
          </CharString>
          <CharString index="314">
            140.5 196 callgsubr
            128 -24 110 callgsubr
            hintmask 11110100
            return
          </CharString>
          <CharString index="315">
            -132 -76 callsubr
            102.830001831 348.869995117 153 callgsubr
            return
          </CharString>
          <CharString index="316">
            210.729995728 hlineto
            15.7400054932 100.119995117 rlineto
            -354.470001221 return
          </CharString>
          <CharString index="317">
            691.380004883 return
          </CharString>
          <CharString index="318">
            -10.5 return
          </CharString>
          <CharString index="319">
            141 0 98.7700042725 493.169998169 99.4400024414 -58 callgsubr
            252.930007935 138.690002441 vstem
            return
          </CharString>
          <CharString index="320">
            28.0500030518 hvcurveto
            -242.61000061 vlineto
            -44.4600067139 -29.6900024414 -32.0599975586 -23.7100067139 -46.8600006104 hhcurveto
            endchar
          </CharString>
          <CharString index="321">
            rlineto
            hintmask 10101100
            -2.96000671387 18.2899932861 19.1300048828 -1.5 19.9100036621 hhcurveto
            185.220001221 117.320007324 return
          </CharString>
          <CharString index="322">
            90 -13.3800048828 95.7400054932 485.020004272 317 callgsubr
            return
          </CharString>
          <CharString index="323">
            315 callgsubr
            124.940002441 201.949996948 124.270004272 return
          </CharString>
          <CharString index="324">
            263 callsubr
            143.999984741 98.6600036621 return
          </CharString>
          <CharString index="325">
            7.61999511719 -21 579.75 -20 return
          </CharString>
          <CharString index="326">
            -158.5 255.5 -97 97 return
          </CharString>
          <CharString index="327">
            132.5 return
          </CharString>
          <CharString index="328">
            102.449996948 return
          </CharString>
          <CharString index="329">
            hstemhm
            246 98 -89 191 callsubr
            return
          </CharString>
          <CharString index="330">
            -239.5 222 callgsubr
            return
          </CharString>
          <CharString index="331">
            157.020004272 112.699996948 return
          </CharString>
          <CharString index="332">
            rmoveto
            -50.5 100 -212.5 -117.5 35 -66 rlineto
            return
          </CharString>
          <CharString index="333">
            -70.9499969482 56.0200042725 -96.5599975586 10.3600006104 return
          </CharString>
          <CharString index="334">
            79.5 return
          </CharString>
          <CharString index="335">
            -61.9199981689 return
          </CharString>
          <CharString index="336">
            60.4600067139 return
          </CharString>
          <CharString index="337">
            89.5 return
          </CharString>
          <CharString index="338">
            104.850006104 return
          </CharString>
          <CharString index="339">
            227.320007324 157.279998779 -54.0800018311 109.839996338 -92.6900024414 54.3200073242 hvcurveto
            -155.779998779 return
          </CharString>
          <CharString index="340">
            5 -8 -13 3 -17 hhcurveto
            -51 -112 -46 -11 -28 hvcurveto
            -2 -5 77 -13 rlineto
            0 11 -41 32 -19 vhcurveto
            12 hlineto
            -15 17 -5 16 12 vvcurveto
            39 39 8 20 return
          </CharString>
          <CharString index="341">
            -226 -196.100006104 -21 746.470001221 -20 return
          </CharString>
          <CharString index="342">
            rmoveto
            75 callsubr
            return
          </CharString>
          <CharString index="343">
            vstem
            279 750 rmoveto
            -30 -20 -20 -30 hvcurveto
            -496 -169 vlineto
            300 -298 300 298 rlineto
            -169 496 hlineto
            30 -20 20 -30 vhcurveto
            return
          </CharString>
          <CharString index="344">
            129.309997559 151.36000061 302 callsubr
            -119.259994507 113.539993286 157.080001831 129.660003662 return
          </CharString>
          <CharString index="345">
            74 21 260 callsubr
            return
          </CharString>
          <CharString index="346">
            hstemhm
            109 callsubr
            return
          </CharString>
          <CharString index="347">
            hstemhm
            -80 callsubr
            228 callgsubr
            return
          </CharString>
          <CharString index="348">
            16.0399932861 293 callsubr
            rlineto
            return
          </CharString>
          <CharString index="349">
            90.6699981689 return
          </CharString>
          <CharString index="350">
            vstem
            441 -12 rmoveto
            358 callgsubr
            496 169 vlineto
            -300 298 -300 -298 rlineto
            169 -496 hlineto
            -30 20 -20 30 vhcurveto
            return
          </CharString>
          <CharString index="351">
            rmoveto
            -96.4499969482 57.5299987793 -99.5899963379 -180.490005493 59.2700042725 -34.7899932861 rlineto
            endchar
          </CharString>
          <CharString index="352">
            rmoveto
            126.570007324 247.339996338 rlineto
            -124.210006714 hlineto
            return
          </CharString>
          <CharString index="353">
            409 callsubr
            30 325.75 vstem
            191.880004883 return
          </CharString>
          <CharString index="354">
            hvcurveto
            -74 -69.2799987793 rlineto
            -56.7400054932 return
          </CharString>
          <CharString index="355">
            279 callgsubr
            vlineto
            return
          </CharString>
          <CharString index="356">
            rmoveto
            -133.36000061 return
          </CharString>
          <CharString index="357">
            45.5 return
          </CharString>
          <CharString index="358">
            127.5 return
          </CharString>
          <CharString index="359">
            96.4400024414 return
          </CharString>
          <CharString index="360">
            vstem
            308.770004272 578.410003662 rmoveto
            -166.259994507 -109.300003052 309 callgsubr
            return
          </CharString>
          <CharString index="361">
            hlineto
            34.0700073242 20.3600006104 17.4600067139 15.7400054932 33.4100036621 36.4100036621 return
          </CharString>
          <CharString index="362">
            51 139 callsubr
            94.0599975586 142.229995728 82.9400024414 144.210006714 95.3699951172 return
          </CharString>
          <CharString index="363">
            36 -14.7100067139 103.429992676 217.090011597 98.3800048828 201.149993896 359 callsubr
            return
          </CharString>
          <CharString index="364">
            67 100 callsubr
            93.4100036621 160.800003052 89.0200042725 153.829986572 94.7299957275 return
          </CharString>
          <CharString index="365">
            -120.740005493 359 callgsubr
            259.400009155 91.3699951172 142.820007324 343 callgsubr
            hstem
            return
          </CharString>
          <CharString index="366">
            hstem
            29.9900054932 261.740005493 vstem
            291.729995728 return
          </CharString>
          <CharString index="367">
            -21 447.649993896 252 callsubr
            -14.7099914551 -20 return
          </CharString>
          <CharString index="368">
            -73 callgsubr
            196 callsubr
            return
          </CharString>
          <CharString index="369">
            138.5 return
          </CharString>
          <CharString index="370">
            99.3200073242 return
          </CharString>
          <CharString index="371">
            143.270004272 -120.61000061 -143.270004272 -175.600006104 -104.850006104 175.600006104 return
          </CharString>
          <CharString index="372">
            -30.4400024414 -30.4299926758 -38.4600067139 302 callgsubr
            30.4400024414 -30.4299926758 return
          </CharString>
          <CharString index="373">
            17.3800048828 -271.509994507 rlineto
            88.3600006104 hlineto
            17.3800048828 271.509994507 rlineto
            endchar
          </CharString>
          <CharString index="374">
            rmoveto
            -134.039993286 hlineto
            -144.289993286 return
          </CharString>
          <CharString index="375">
            124.559997559 -89.6600036621 129 return
          </CharString>
          <CharString index="376">
            vlineto
            159 callsubr
            return
          </CharString>
          <CharString index="377">
            97 202 callgsubr
            67 107.5 107.5 -73.5 94 callgsubr
            -97 hvcurveto
            return
          </CharString>
          <CharString index="378">
            44.5 return
          </CharString>
          <CharString index="379">
            128.63999939 return
          </CharString>
          <CharString index="380">
            660.5 return
          </CharString>
          <CharString index="381">
            323 callsubr
            175 78 hstem
            66.5 94.5 155 94 vstem
            238.5 return
          </CharString>
          <CharString index="382">
            71 21 -21 251.130004883 90.0399932861 225.210006714 -20 85 callsubr
            128 vstem
            return
          </CharString>
          <CharString index="383">
            0 325 callgsubr
            468.619995117 -20 85 callsubr
            128 198.600006104 128 vstem
            return
          </CharString>
          <CharString index="384">
            rmoveto
            -77.5 270 77.5 vlineto
            endchar
          </CharString>
          <CharString index="385">
            -38 callgsubr
            0 -20 hstemhm
            return
          </CharString>
          <CharString index="386">
            126 callsubr
            -80 callsubr
            463 callsubr
            hintmask 11101000
            206.5 return
          </CharString>
          <CharString index="387">
            69 161 callsubr
            202 callgsubr
            55.5 -20 222 callsubr
            return
          </CharString>
          <CharString index="388">
            -67.5 252 callgsubr
            252 callgsubr
            return
          </CharString>
          <CharString index="389">
            -89.7700042725 -75.4199981689 -30.3600006104 return
          </CharString>
          <CharString index="390">
            75 hstem
            58.5 282.5 vstem
            341 return
          </CharString>
          <CharString index="391">
            -58.7899932861 hlineto
            -101.169998169 return
          </CharString>
          <CharString index="392">
            21.75 124.300003052 rlineto
            return
          </CharString>
          <CharString index="393">
            103 callgsubr
            128 return
          </CharString>
          <CharString index="394">
            251 callgsubr
            rmoveto
            return
          </CharString>
          <CharString index="395">
            60.3899993896 vhcurveto
            return
          </CharString>
          <CharString index="396">
            368.229995728 vlineto
            return
          </CharString>
          <CharString index="397">
            221 callsubr
            hstem
            return
          </CharString>
          <CharString index="398">
            29.8099975586 return
          </CharString>
          <CharString index="399">
            100.410003662 return
          </CharString>
          <CharString index="400">
            107.809997559 return
          </CharString>
          <CharString index="401">
            -76 callsubr
            95.7599945068 401.620010376 432 callsubr
            hstem
            23.2100067139 return
          </CharString>
          <CharString index="402">
            482 callsubr
            39 309 callsubr
            -101 callsubr
            return
          </CharString>
          <CharString index="403">
            144.300003052 31.7899932861 60.5800018311 92.6999969482 vvcurveto
            101.339996338 return
          </CharString>
          <CharString index="404">
            hintmask 00000000
            hintmask 11110000
            return
          </CharString>
          <CharString index="405">
            27 21 407 callsubr
            231.319992065 201 callgsubr
            77 128 return
          </CharString>
          <CharString index="406">
            84.2599945068 -59.6399993896 47.0399932861 -89.2200012207 9.36000061035 return
          </CharString>
          <CharString index="407">
            hstem
            148 callsubr
            vstem
            288 return
          </CharString>
          <CharString index="408">
            hlineto
            -30 -20 -20 -30 hvcurveto
            -625 vlineto
            -30 20 -20 30 vhcurveto
            return
          </CharString>
          <CharString index="409">
            124.63999939 return
          </CharString>
          <CharString index="410">
            -128 -468.619995117 -198.600006104 468.619995117 -128 -49 callsubr
            return
          </CharString>
          <CharString index="411">
            329 0 99.4499969482 252.029998779 95.7299957275 244.170013428 -20 return
          </CharString>
          <CharString index="412">
            28 21 -21 234.850006104 380 callgsubr
            209.630004883 -20 474 callgsubr
            return
          </CharString>
          <CharString index="413">
            -128 -431.619995117 -170.580001831 431.619995117 354 callgsubr
            return
          </CharString>
          <CharString index="414">
            22.6999969482 41.9799957275 return
          </CharString>
          <CharString index="415">
            -47 callsubr
            -73 callgsubr
            return
          </CharString>
          <CharString index="416">
            38.5 -30.5 return
          </CharString>
          <CharString index="417">
            -114.989990234 130.330001831 return
          </CharString>
          <CharString index="418">
            357.809997559 vstem
            return
          </CharString>
          <CharString index="419">
            hmoveto
            -57 callsubr
            return
          </CharString>
          <CharString index="420">
            vlineto
            198 callgsubr
            return
          </CharString>
          <CharString index="421">
            161 callgsubr
            rmoveto
            return
          </CharString>
          <CharString index="422">
            61 -76 callsubr
            return
          </CharString>
          <CharString index="423">
            33.8899993896 95.4499969482 407.559997559 -20 61.5100097656 -20 hstem
            return
          </CharString>
          <CharString index="424">
            97.0899963379 211.490005493 378 callgsubr
            179.259994507 128 vstem
            return
          </CharString>
          <CharString index="425">
            41.1100006104 -32.7299957275 31.7400054932 -42.4600067139 vhcurveto
            endchar
          </CharString>
          <CharString index="426">
            474.320007324 272 callgsubr
            rmoveto
            -128 return
          </CharString>
          <CharString index="427">
            358 callgsubr
            625 vlineto
            30 -20 20 -30 vhcurveto
            return
          </CharString>
          <CharString index="428">
            66.9100036621 138 hstemhm
            return
          </CharString>
          <CharString index="429">
            110 100 callsubr
            return
          </CharString>
          <CharString index="430">
            78.5 return
          </CharString>
          <CharString index="431">
            97.1000061035 return
          </CharString>
          <CharString index="432">
            213.339996338 return
          </CharString>
          <CharString index="433">
            690.5 return
          </CharString>
          <CharString index="434">
            -126.300003052 return
          </CharString>
          <CharString index="435">
            -146.699996948 -0.130004882812 rlineto
            -93.4299926758 146.63999939 vlineto
            return
          </CharString>
          <CharString index="436">
            171.470001221 -107.550003052 vlineto
            -12.8899993896 -171.470001221 rlineto
            return
          </CharString>
          <CharString index="437">
            343 callgsubr
            rlineto
            -390.529998779 -351.940002441 91.3600006104 hlineto
            return
          </CharString>
          <CharString index="438">
            hhcurveto
            39.1300048828 26.5299987793 62 callsubr
            return
          </CharString>
          <CharString index="439">
            171 callsubr
            138.699996948 274.510009766 129.320007324 vstem
            return
          </CharString>
          <CharString index="440">
            -33 35 -46 15 0 vvcurveto
            -1 -4 27 -34 rlineto
            -2 vlineto
            -21 -46 -9 0 hvcurveto
            -1 -4 rlineto
            return
          </CharString>
          <CharString index="441">
            96.2100067139 hhcurveto
            153.539993286 109.100006104 83.3200073242 return
          </CharString>
          <CharString index="442">
            -88.3399963379 379 callsubr
            -147.11000061 hvcurveto
            -68.1699981689 return
          </CharString>
          <CharString index="443">
            hstem
            -6.80000305176 578.630004883 vstem
            return
          </CharString>
          <CharString index="444">
            rmoveto
            -57 callsubr
            -159.759994507 vlineto
            return
          </CharString>
          <CharString index="445">
            rmoveto
            -52 callsubr
            -151.039993286 vlineto
            return
          </CharString>
          <CharString index="446">
            464 callsubr
            128 return
          </CharString>
          <CharString index="447">
            -21 callsubr
            rlineto
            return
          </CharString>
          <CharString index="448">
            242 callgsubr
            rlineto
            return
          </CharString>
          <CharString index="449">
            13.6600036621 return
          </CharString>
          <CharString index="450">
            hstemhm
            77 128 return
          </CharString>
          <CharString index="451">
            143.470001221 -75.6999969482 86.7799987793 -136.119995117 return
          </CharString>
          <CharString index="452">
            -20 20.1999969482 -20 31.8000030518 -20 22.25 -20 hstemhm
            return
          </CharString>
          <CharString index="453">
            121.789993286 -66.0399932861 73.7700042725 -120.429992676 return
          </CharString>
          <CharString index="454">
            108 21 -21 245.75 456 callsubr
            return
          </CharString>
          <CharString index="455">
            369 callgsubr
            hintmask 01001111
            return
          </CharString>
          <CharString index="456">
            hstemhm
            70.6300048828 -73 callgsubr
            return
          </CharString>
          <CharString index="457">
            365 callgsubr
            132.429992676 return
          </CharString>
          <CharString index="458">
            rmoveto
            -63.0899963379 -39.5899963379 return
          </CharString>
          <CharString index="459">
            -40 callgsubr
            -46 hvcurveto
            endchar
          </CharString>
          <CharString index="460">
            hstemhm
            77 123.600006104 return
          </CharString>
          <CharString index="461">
            -20 hstemhm
            -19 callgsubr
            return
          </CharString>
          <CharString index="462">
            43.4199981689 return
          </CharString>
          <CharString index="463">
            36.5099945068 return
          </CharString>
          <CharString index="464">
            17.5 return
          </CharString>
          <CharString index="465">
            130.630004883 return
          </CharString>
          <CharString index="466">
            100.75 return
          </CharString>
          <CharString index="467">
            rmoveto
            hintmask 01011010
            72 callgsubr
            91 hlineto
            hintmask 01011101
            -290.5 hlineto
            return
          </CharString>
          <CharString index="468">
            269 139 callsubr
            324 callsubr
            446.999984741 -20 return
          </CharString>
          <CharString index="469">
            94 callgsubr
            105 67 hstem
            30 79 97 79 vstem
            157.5 return
          </CharString>
          <CharString index="470">
            455 callgsubr
            -39 31 -30.5 return
          </CharString>
          <CharString index="471">
            -80 -43.5 -61 -52 return
          </CharString>
          <CharString index="472">
            92.9100036621 92 return
          </CharString>
          <CharString index="473">
            -21 447.63999939 return
          </CharString>
          <CharString index="474">
            98.0899963379 481 callgsubr
            175.919998169 128 vstem
            return
          </CharString>
          <CharString index="475">
            105.75 hstem
            607.5 114.25 vstem
            return
          </CharString>
          <CharString index="476">
            hstem
            135.210006714 117.979995728 vstem
            253.190002441 return
          </CharString>
          <CharString index="477">
            hvcurveto
            76.6600036621 -62.2599945068 rlineto
            52.2200012207 return
          </CharString>
          <CharString index="478">
            275.75 106.490005493 195.039993286 -20 hstem
            return
          </CharString>
          <CharString index="479">
            217 callgsubr
            endchar
          </CharString>
          <CharString index="480">
            191.470001221 100.419998169 return
          </CharString>
          <CharString index="481">
            100.119995117 474 callgsubr
            return
          </CharString>
          <CharString index="482">
            138 93 callsubr
            return
          </CharString>
          <CharString index="483">
            -132.699996948 -691.380004883 return
          </CharString>
          <CharString index="484">
            198.5 return
          </CharString>
          <CharString index="485">
            122.259994507 return
          </CharString>
          <CharString index="486">
            58.6999969482 return
          </CharString>
          <CharString index="487">
            431.279998779 return
          </CharString>
          <CharString index="488">
            96.4499969482 return
          </CharString>
          <CharString index="489">
            49.2100067139 return
          </CharString>
          <CharString index="490">
            98.4400024414 return
          </CharString>
          <CharString index="491">
            214.509994507 292 callsubr
            171 callsubr
            return
          </CharString>
          <CharString index="492">
            92.6999969482 142.220001221 250 callgsubr
            hstem
            return
          </CharString>
          <CharString index="493">
            252 callgsubr
            74 -67.5 96.5 return
          </CharString>
          <CharString index="494">
            -168.5 -0.130004882812 rlineto
            -104.429992676 return
          </CharString>
          <CharString index="495">
            8.41999816895 -66.8099975586 rlineto
            113.270004272 return
          </CharString>
          <CharString index="496">
            15.3000030518 46.2100067139 hhcurveto
            54.8500061035 return
          </CharString>
          <CharString index="497">
            102.699996948 412 callsubr
            56.2200012207 return
          </CharString>
          <CharString index="498">
            71 -94 rmoveto
            0 35 6 44 32 42 -9 0 vhcurveto
            3 3 rlineto
            return
          </CharString>
          <CharString index="499">
            -322.61000061 87.0399932861 74.3200073242 return
          </CharString>
          <CharString index="500">
            58.1100006104 272 callsubr
            118.699996948 return
          </CharString>
          <CharString index="501">
            84.7299957275 -83.0200042725 104.679992676 return
          </CharString>
          <CharString index="502">
            -86.7700042725 -138.679992676 -134.720001221 return
          </CharString>
          <CharString index="503">
            309 callgsubr
            -182.600006104 return
          </CharString>
          <CharString index="504">
            136.699996948 -118.059997559 140.039993286 return
          </CharString>
          <CharString index="505">
            -108.25 41.5099945068 -196.240005493 return
          </CharString>
          <CharString index="506">
            69.1900024414 26.3200073242 234.789993286 return
          </CharString>
          <CharString index="507">
            -165 rmoveto
            11 9 -9 -11 hvcurveto
            -74 vlineto
            -11 -9 -9 -11 vhcurveto
            return
          </CharString>
          <CharString index="508">
            100.020004272 -56.3200073242 60.6399993896 return
          </CharString>
          <CharString index="509">
            36.1699981689 90.5800018311 83.1300048828 return
          </CharString>
          <CharString index="510">
            105 hstem
            219.5 121 vstem
            340.5 return
          </CharString>
          <CharString index="511">
            122.529998779 -28.7899932861 31.1300048828 return
          </CharString>
          <CharString index="512">
            17 421 callsubr
          </CharString>
          <CharString index="513">
            21 96 callsubr
            hstem
            return
          </CharString>
          <CharString index="514">
            -21 272 callgsubr
            -20 return
          </CharString>
          <CharString index="515">
            97.0899963379 hstem
            return
          </CharString>
          <CharString index="516">
            324 callgsubr
            hstem
            return
          </CharString>
          <CharString index="517">
            261.5 return
          </CharString>
          <CharString index="518">
            587.369995117 return
          </CharString>
          <CharString index="519">
            59.5899963379 return
          </CharString>
          <CharString index="520">
            101.11000061 return
          </CharString>
          <CharString index="521">
            -21.0200042725 return
          </CharString>
          <CharString index="522">
            -18.0200042725 return
          </CharString>
          <CharString index="523">
            70.9900054932 return
          </CharString>
          <CharString index="524">
            47.6300048828 return
          </CharString>
          <CharString index="525">
            -507 742 16 -8 -20 hstemhm
            -8 16 hintmask 00000000
            hintmask 01100000
            return
          </CharString>
          <CharString index="526">
            hlineto
            hintmask 10111100
            159 callsubr
            return
          </CharString>
          <CharString index="527">
            0 21 22 21 7 vhcurveto
            -38 24 -15 14 -10 vhcurveto
            6 hlineto
            return
          </CharString>
          <CharString index="528">
            11 callgsubr
            hlineto
            endchar
          </CharString>
          <CharString index="529" raw="1">
            f7120a78 1d0b  
          </CharString>
          <CharString index="530">
            -20 269 callgsubr
            return
          </CharString>
          <CharString index="531">
            59 -51 46.5 -95.5 vhcurveto
            return
          </CharString>
          <CharString index="532">
            -56.8699951172 -75.0899963379 vhcurveto
            endchar
          </CharString>
          <CharString index="533">
            -12 146 443 136 hstem
            return
          </CharString>
          <CharString index="534">
            hintmask 10101100000000110111100100000000
            return
          </CharString>
          <CharString index="535">
            424.5 return
          </CharString>
          <CharString index="536">
            168.5 return
          </CharString>
          <CharString index="537">
            -20 343 callsubr
            return
          </CharString>
          <CharString index="538">
            -212.270004272 return
          </CharString>
          <CharString index="539">
            95.75 return
          </CharString>
          <CharString index="540">
            770.5 return
          </CharString>
          <CharString index="541">
            20.7200012207 return
          </CharString>
          <CharString index="542">
            531.789993286 return
          </CharString>
          <CharString index="543">
            -20 446 callsubr
            167 callgsubr
            return
          </CharString>
          <CharString index="544">
            rlineto
            106.869995117 hlineto
            20.0500030518 return
          </CharString>
          <CharString index="545">
            -20 286 callgsubr
            return
          </CharString>
          <CharString index="546">
            hintmask 00000000
            hintmask 11101100
            return
          </CharString>
          <CharString index="547">
            191 189 191 return
          </CharString>
          <CharString index="548">
            131.279998779 vstem
            return
          </CharString>
          <CharString index="549">
            -196.75 -21 return
          </CharString>
          <CharString index="550">
            hlineto
            171.490005493 return
          </CharString>
          <CharString index="551">
            -14.0399932861 hvcurveto
            return
          </CharString>
          <CharString index="552">
            220 callsubr
            vstem
            return
          </CharString>
          <CharString index="553">
            hstem
            291 callsubr
            return
          </CharString>
          <CharString index="554">
            273 callgsubr
            rmoveto
            return
          </CharString>
          <CharString index="555">
            190 callsubr
            vstem
            return
          </CharString>
          <CharString index="556">
            -196.759994507 -21 return
          </CharString>
          <CharString index="557">
            vstem
            -80 callsubr
            return
          </CharString>
          <CharString index="558">
            rcurveline
            134.020004272 34.9600067139 return
          </CharString>
          <CharString index="559">
            8.0299987793 hvcurveto
            -200.63999939 return
          </CharString>
          <CharString index="560">
            -21 229 callgsubr
            99.1000061035 return
          </CharString>
          <CharString index="561">
            37.7599945068 vhcurveto
            -208.11000061 return
          </CharString>
          <CharString index="562">
            76 54 -20 hstemhm
            242 190 callsubr
            return
          </CharString>
          <CharString index="563">
            100.470001221 220.149993896 -20 return
          </CharString>
          <CharString index="564">
            27.1199951172 -91.7599945068 rcurveline
            return
          </CharString>
          <CharString index="565">
            hhcurveto
            79.7899932861 64.0899963379 return
          </CharString>
          <CharString index="566">
            -233.779998779 hvcurveto
            -94.3899993896 return
          </CharString>
          <CharString index="567">
            -38 callgsubr
            447 callsubr
            return
          </CharString>
          <CharString index="568">
            -459.470001221 rlineto
            -85.0500030518 return
          </CharString>
          <CharString index="569">
            -181.38999939 hvcurveto
            -94.3999938965 return
          </CharString>
          <CharString index="570">
            45 callsubr
            hintmask 00000000
            return
          </CharString>
          <CharString index="571">
            -128 173 callgsubr
            return
          </CharString>
          <CharString index="572">
            rlineto
            136.419998169 hlineto
            return
          </CharString>
          <CharString index="573">
            30.6999969482 return
          </CharString>
          <CharString index="574">
            195.5 return
          </CharString>
          <CharString index="575">
            -26.7299957275 return
          </CharString>
          <CharString index="576">
            -130.020004272 return
          </CharString>
          <CharString index="577">
            245.5 return
          </CharString>
          <CharString index="578">
            115.5 return
          </CharString>
          <CharString index="579">
            99.8099975586 return
          </CharString>
          <CharString index="580">
            583.559997559 return
          </CharString>
          <CharString index="581">
            591.490005493 return
          </CharString>
          <CharString index="582">
            -95.75 return
          </CharString>
          <CharString index="583">
            -95.4100036621 return
          </CharString>
          <CharString index="584">
            45.4900054932 return
          </CharString>
          <CharString index="585">
            -47.8699951172 return
          </CharString>
          <CharString index="586">
            -49.5099945068 return
          </CharString>
          <CharString index="587">
            35.7100067139 return
          </CharString>
          <CharString index="588">
            -71.4400024414 -53.8899993896 return
          </CharString>
          <CharString index="589">
            -101 callsubr
            -101 callsubr
            return
          </CharString>
          <CharString index="590">
            342.380004883 105.210006714 return
          </CharString>
          <CharString index="591">
            136 callsubr
            -31.5 return
          </CharString>
          <CharString index="592">
            -42.1000061035 -26.0500030518 return
          </CharString>
          <CharString index="593">
            -38.3600006104 -71.0399932861 return
          </CharString>
          <CharString index="594">
            144.960006714 128.029998779 return
          </CharString>
        <CharString name=".notdef">
          159 -500 52 496 72 283 48 547 52 hstemhm
          123 55 102 70 -60 50 41 54 54 54 hintmask 1011101110000000
          543 -500 rmoveto
          1550 -420 -1550 vlineto
          55 1498 rmoveto
          311 -1446 -311 hlineto
          146 899 rmoveto
          -39 -54 -12 -27 -13 9 -10 15 4 4 1 2 5 hvcurveto
          8 17 14 3 21 hhcurveto
          50 11 -30 -39 -53 -19 -20 -72 -4 hvcurveto
          -84 vlineto
          -15 12 -9 13 12 13 9 15 vhcurveto
          45 vlineto
          67 10 28 38 70 vvcurveto
          60 -25 55 -86 vhcurveto
          hintmask 1111110110000000
          -9 -331 rmoveto
          -20 -15 -15 -20 -21 15 -16 20 20 15 16 21 20 -15 15 -20 hvcurveto
          endchar
        </CharString>
        <CharString name="A">
          -71 callsubr
          90 callgsubr
          hintmask 11011000
          404.229995728 160.089996338 -96 callgsubr
          hintmask 11101000
          21 callsubr
        </CharString>
        <CharString name="AE">
          105 callgsubr
          789.509994507 99.0899963379 -35 callsubr
        </CharString>
        <CharString name="AEacute">
          105 callgsubr
          381 753 108 callgsubr
          441.509994507 -719.910003662 -35 callsubr
        </CharString>
        <CharString name="Aacute">
          -71 callsubr
          90 callgsubr
          hintmask 11011000
          193.5 753 108 callgsubr
          243.729995728 -658.910003662 -96 callgsubr
          hintmask 11101000
          21 callsubr
        </CharString>
        <CharString name="Abreve">
          -71 callsubr
          82.6300048828 170 callsubr
          90 callgsubr
          hintmask 11011100
          72 callgsubr
          -78 callsubr
          113.729995728 -593.910003662 -96 callgsubr
          hintmask 11101100
          21 callsubr
        </CharString>
        <CharString name="Acircumflex">
          -71 callsubr
          90 callgsubr
          hintmask 11011000
          162 756.5 rmoveto
          130 83 130.5 -83 48.5 56 -138.5 120.5 78 callsubr
          hlineto
          -139 -120.5 rlineto
          291.229995728 -652.410003662 -96 callgsubr
          hintmask 11101000
          21 callsubr
        </CharString>
        <CharString name="Adieresis">
          -36 callsubr
        </CharString>
        <CharString name="Agrave">
          -71 callsubr
          90 callgsubr
          hintmask 11011000
          381.5 753 rmoveto
          32.5 66 -211 117 -50.5 -100 rlineto
          251.729995728 -675.910003662 -96 callgsubr
          hintmask 11101000
          21 callsubr
        </CharString>
        <CharString name="Alpha">
          -71 callsubr
          90 callgsubr
          hintmask 11011000
          404.229995728 160.089996338 -96 callgsubr
          hintmask 11101000
          21 callsubr
        </CharString>
        <CharString name="Alphatonos">
          -71 callsubr
          20.1300048828 -20 hstemhm
          -37.5 624.539993286 hintmask 11001100
          49 477.5 rmoveto
          81 214 -130.5 25 -37 -224.5 rlineto
          441.729995728 -331.910003662 rmoveto
          42.7299957275 -160.089996338 rlineto
          140.080001831 hlineto
          hintmask 11010100
          -213.88999939 95 callgsubr
          -162.789993286 hlineto
          -214.880004883 80 callsubr
          136.410003662 hlineto
          42.7299957275 160.089996338 rlineto
          203 99.7599945068 rmoveto
          -176.380004883 hlineto
          hintmask 11100100
          21 callsubr
        </CharString>
        <CharString name="Amacron">
          -71 callsubr
          111.130004883 91 hstemhm
          146 262 callgsubr
          hintmask 11011100
          436.5 421 callgsubr
          258.229995728 -622.410003662 -96 callgsubr
          hintmask 11101100
          21 callsubr
        </CharString>
        <CharString name="Aogonek">
          76 223 callsubr
          175 -63 callgsubr
          hstemhm
          305 98 hintmask 11101100
          587.029998779 hmoveto
          -213.880004883 95 callgsubr
          -162.789993286 hlineto
          -214.88999939 -691.369995117 465 callsubr
          42.7200012207 160.089996338 rlineto
          229.630004883 hlineto
          36.9799957275 -138.550003052 rlineto
          -87.3000030518 -34.8000030518 -48.9199981689 -47.75 -68.9900054932 -77 callgsubr
          100 callgsubr
          hvcurveto
          -145.88999939 259.850006104 rmoveto
          -176.380004883 hlineto
          hintmask 11110100
          88.1900024414 330.449996948 rlineto
          endchar
        </CharString>
        <CharString name="Aring">
          -71 callsubr
          68.1300048828 94 callgsubr
          105 67 hstemhm
          164 79 97 79 hintmask 11011111
          291.5 739.5 76 callgsubr
          112.729995728 -751.910003662 -96 callgsubr
          hintmask 11101111
          21 callsubr
        </CharString>
        <CharString name="Atilde">
          -71 callsubr
          431 callgsubr
          93 -46.5 93 90 callgsubr
          hintmask 11010110
          234.5 817 -9 callsubr
          169.729995728 -656.910003662 -96 callgsubr
          hintmask 11100110
          21 callsubr
        </CharString>
        <CharString name="B">
          -81 callgsubr
        </CharString>
        <CharString name="Beta">
          -81 callgsubr
        </CharString>
        <CharString name="C">
          25 callsubr
          343.369995117 706.089996338 -97 callsubr
        </CharString>
        <CharString name="CR">
          -257 endchar
        </CharString>
        <CharString name="Cacute">
          25 callsubr
          481 -6 callgsubr
          90.8699951172 -46.9100036621 -97 callsubr
        </CharString>
        <CharString name="Cacute.loclPLK">
          25 callsubr
          484 124 callsubr
          -3.13000488281 -31.9100036621 -97 callsubr
        </CharString>
        <CharString name="Ccaron">
          25 callsubr
          530 -15 callsubr
          -48.1300048828 -45.4100036621 -97 callsubr
        </CharString>
        <CharString name="Ccedilla">
          61 312 callgsubr
          165.5 103.75 -82.75 -21 22.0399932861 -21 616.280014038 101.770004272 160 callgsubr
          113.789993286 83.7200012207 231 callgsubr
          97 hintmask 00000000
          hintmask 11001100
          22 callgsubr
          hvcurveto
          hintmask 10011110
          -214.990005493 104.059997559 -124.050003052 154.88999939 -19.6199951172 vhcurveto
          -11.5599975586 -94.0399932861 rlineto
          hintmask 10011101
          -85 callgsubr
          hvcurveto
          hintmask 10101110
          195 callsubr
          vhcurveto
          38.5 vlineto
          78.3099975586 8.14999389648 59.9199981689 36.0500030518 36.7100067139 37.8800048828 rrcurveto
          endchar
        </CharString>
        <CharString name="Ccircumflex">
          25 callsubr
          351 -65 callgsubr
          122.369995117 -50.4100036621 -97 callsubr
        </CharString>
        <CharString name="Cdotaccent">
          315 callsubr
          105.470001221 513.570007324 101.770004272 61.9099884033 154.5 171 callsubr
          142 callsubr
          87.5200042725 270 callgsubr
          350 922.5 rmoveto
          -95 callsubr
          -6.63000488281 -216.410003662 -97 callsubr
        </CharString>
        <CharString name="Chi">
          55 406 callsubr
          382 callgsubr
          562.600006104 vstem
          562.509994507 hmoveto
          -204.570007324 373.020004272 -25 callsubr
          endchar
        </CharString>
        <CharString name="D">
          212 callsubr
          80.6399993896 691.369995117 73 callgsubr
        </CharString>
        <CharString name="Dcaron">
          212 callsubr
          478 -15 callsubr
          -258.86000061 -60.1300048828 73 callgsubr
        </CharString>
        <CharString name="Dcroat">
          7 callgsubr
        </CharString>
        <CharString name="Delta">
          84 callgsubr
        </CharString>
        <CharString name="E">
          -7 callsubr
        </CharString>
        <CharString name="Eacute">
          -46 callsubr
          14 callsubr
          414 -6 callgsubr
          282.270004272 -160.380004883 66 callsubr
          -85 callsubr
        </CharString>
        <CharString name="Ebreve">
          -46 callsubr
          62.620010376 170 callsubr
          14 callsubr
          282.5 -78 callsubr
          185.270004272 -161.380004883 66 callsubr
          -85 callsubr
        </CharString>
        <CharString name="Ecaron">
          -46 callsubr
          14 callsubr
          463 -15 callsubr
          143.270004272 -158.880004883 66 callsubr
          -85 callsubr
        </CharString>
        <CharString name="Ecircumflex">
          -46 callsubr
          14 callsubr
          284 -65 callgsubr
          313.770004272 -163.880004883 66 callsubr
          -85 callsubr
        </CharString>
        <CharString name="Edieresis">
          -46 callsubr
          81.620010376 138 63 callgsubr
          -111.339996338 -80 callgsubr
          377 callgsubr
          172.5 911 -107 callgsubr
          73.7700042725 -318.380004883 66 callsubr
          hintmask 11101000
          -85 callsubr
        </CharString>
        <CharString name="Edotaccent">
          -46 callsubr
          76.620010376 154.5 63 callgsubr
          -9.83999633789 162 callgsubr
          hintmask 00000000
          hintmask 11110100
          283.5 922.5 rmoveto
          -95 callsubr
          184.270004272 -329.880004883 66 callsubr
          hintmask 11101000
          -85 callsubr
        </CharString>
        <CharString name="Egrave">
          -46 callsubr
          14 callsubr
          406 5 callsubr
          94.2700042725 -160.380004883 66 callsubr
          -85 callsubr
        </CharString>
        <CharString name="Emacron">
          -46 callsubr
          91.120010376 91 63 callgsubr
          -75.3399963379 262 callgsubr
          hintmask 11110100
          138 782.5 -24 callsubr
          329.770004272 -280.880004883 66 callsubr
          hintmask 11111000
          -85 callsubr
        </CharString>
        <CharString name="Eng">
          165 -196.100006104 -21 238.100006104 -21 554.130004883 137.240005493 hstem
          344 callgsubr
          vstem
          474 callsubr
          205 callgsubr
          -120.589996338 -324.039993286 hlineto
          -98.2599945068 12.3600006104 -99.8099975586 7.10000610352 -34 vhcurveto
          -4 hlineto
          -236.589996338 556.11000061 rlineto
          -169.130004883 -47 callsubr
          169 callsubr
          282.039993286 hlineto
          128.339996338 -11.3999938965 86.75 -8.05000305176 57 vhcurveto
          4 hlineto
          232.899993896 -554.130004883 rlineto
          55.8899993896 hlineto
          -8.53999328613 -77.3300018311 -36.7700042725 -23.6100006104 -67.4700012207 -30.3800048828 37.2299957275 -85.7799987793 rcurveline
          118.789993286 417 callsubr
          176 callgsubr
          162.240005493 vvcurveto
          endchar
        </CharString>
        <CharString name="Eogonek">
          23 223 callsubr
          154 99.0899963379 203.400009155 97.3899993896 192.739990234 98.75 63 callgsubr
          14.1600036621 98 hintmask 01111000
          485.75 hmoveto
          99.0899963379 -272.410003662 203.399993896 221.809997559 97.3899993896 -221.809997559 192.740005493 254.429992676 vlineto
          191 callgsubr
          98.75 rlineto
          -401.529998779 -47 callsubr
          hlineto
          hintmask 11111100
          237.089996338 hlineto
          -58.3000030518 -32.3899993896 -31.9299926758 -41.8699951172 -55.7400054932 -77 callgsubr
          100 callgsubr
          hvcurveto
          endchar
        </CharString>
        <CharString name="Epsilon">
          -7 callsubr
        </CharString>
        <CharString name="Epsilontonos">
          -46 callsubr
          14 callsubr
          61 51 callgsubr
          487.770004272 115.119995117 66 callsubr
          -85 callsubr
        </CharString>
        <CharString name="Eta">
          0 callsubr
          458.850006104 308.729995728 -31 callgsubr
        </CharString>
        <CharString name="Etatonos">
          165 21 -21 308.729995728 178 callgsubr
          20.1300048828 187 callgsubr
          245.510009766 -73 callgsubr
          hintmask 11011100
          61 51 callgsubr
          478.850006104 -168.770004272 rmoveto
          -308.729995728 -73 callgsubr
          vlineto
          hintmask 11101100
          -57 callsubr
          -132.699996948 -277.470001221 -245.509994507 277.470001221 -132.699996948 308 callsubr
          308.729995728 vlineto
          endchar
        </CharString>
        <CharString name="Eth">
          7 callgsubr
        </CharString>
        <CharString name="Euro">
          -57 callgsubr
        </CharString>
        <CharString name="Euro.osf">
          -57 callgsubr
        </CharString>
        <CharString name="Euro.tf">
          -76 callsubr
          97.7100067139 151.88999939 72.5500030518 79.8099975586 73.2100067139 148.91998291 96.7200012207 hstem
          472 callsubr
          441 callsubr
          432.539993286 234.880004883 rmoveto
          17.7400054932 72.5500030518 rlineto
          -219.190002441 79.8099975586 236.149993896 hlineto
          18.3999938965 73.2100067139 rlineto
          -248.929992676 hlineto
          105.839996338 23.0500030518 49.0099945068 43.0800018311 72.0299987793 hhcurveto
          52.6100006104 38.3399963379 -13.3200073242 -27.6399993896 45.6199951172 hvcurveto
          43.4700012207 81 rlineto
          34.6199951172 -51.6000061035 -58.6799926758 22.0599975586 -76.1300048828 hhcurveto
          -130.960006714 -103.869995117 -86.3899993896 -159.25 -35.2599945068 hvcurveto
          -69.4400024414 215 callgsubr
          86.6199951172 hlineto
          -163.119995117 28.6300048828 93.3800048828 -86.4799957275 144.61000061 hhcurveto
          61.6399993896 46.6799926758 14.3000030518 23.3600006104 49.4199981689 hvcurveto
          102.070007324 vlineto
          -23.0399932861 -41.0399932861 -44.6999969482 -18.9799957275 -55.6300048828 hhcurveto
          -87.3000030518 -47.5599975586 42.9400024414 108.949996948 -16.9199981689 hvcurveto
          endchar
        </CharString>
        <CharString name="Euro.tosf">
          -14.7100067139 97.7100067139 141.88999939 72.5399932861 79.8100128174 73.2100067139 137.599990845 96.7299957275 hstem
          116.130004883 441 callsubr
          437.449996948 224.880004883 rmoveto
          17.7400054932 72.5500030518 rlineto
          -207.779998779 79.8099975586 224.740005493 hlineto
          18.3899993896 73.2100067139 rlineto
          -236.820007324 hlineto
          95.2899932861 23.6900024414 50.7299957275 42.3099975586 67.7200012207 hhcurveto
          49.25 35.3200073242 -13.3200073242 -27.6399993896 43.9199981689 hvcurveto
          46.8699951172 81 -51.6000061035 34.6300048828 -55.6600036621 22.0500030518 -73.1199951172 0.00999450683594 rlinecurve
          -130.880004883 -103.380004883 -85.8300018311 -148.490005493 -35.5800018311 hvcurveto
          -69.7799987793 215 callgsubr
          86.8300018311 hlineto
          -153.559997559 28.8699951172 93.0299987793 -86.0399932861 144.600006104 hhcurveto
          58.6300048828 43.6600036621 14.3000030518 23.3600006104 49.4100036621 hvcurveto
          102.070007324 vlineto
          -23.0399932861 -41.0399932861 -43.3699951172 -18.9799957275 -52.6100006104 hhcurveto
          -84.5700073242 -47.1100006104 42.3999938965 99.4900054932 -17.9499969482 hvcurveto
          endchar
        </CharString>
        <CharString name="F">
          -18 21 -21 287.710006714 98.1000061035 206.8099823 98.75 14 callsubr
          458.050003052 592.619995117 206 callgsubr
          98.75 rlineto
          -391.809997559 308 callsubr
          287.710006714 212.770004272 98.1000061035 -212.770004272 206.809997559 hlineto
          endchar
        </CharString>
        <CharString name="G">
          199 callgsubr
          274.5 -18 callsubr
          endchar
        </CharString>
        <CharString name="Gamma">
          133 callgsubr
        </CharString>
        <CharString name="Gbreve">
          154 callsubr
          47.9100036621 170 callsubr
          332 callsubr
          352 -78 callsubr
          6.44999694824 -47.9100036621 123 callgsubr
          -44 callsubr
          49.6799926758 -57.9799957275 -66.8500061035 31.4100036621 -97.0700073242 hhcurveto
          endchar
        </CharString>
        <CharString name="Gcircumflex">
          154 callsubr
          332 callsubr
          353.5 -65 callgsubr
          134.949996948 -50.4100036621 123 callgsubr
          -44 callsubr
          49.6799926758 -57.9799957275 -66.8500061035 31.4100036621 -97.0700073242 hhcurveto
          endchar
        </CharString>
        <CharString name="Gcommaaccent">
          199 callgsubr
          96.1799926758 138 40.3200073242 -18 callsubr
          -10.9499969482 -778.089996338 -96 callsubr
        </CharString>
        <CharString name="Gdotaccent">
          154 callsubr
          61.9100036621 249 callgsubr
          -19 callgsubr
          138.699996948 90.6900024414 162 callgsubr
          23.3200073242 129.320007324 hintmask 00000000
          hintmask 11111110
          352.5 922.5 rmoveto
          -95 callsubr
          5.94999694824 -216.410003662 123 callgsubr
          hvcurveto
          hintmask 11101010
          -44 callsubr
          hintmask 11111110
          177 callsubr
          31.4100036621 -97.0700073242 hhcurveto
          endchar
        </CharString>
        <CharString name="H">
          0 callsubr
          458.850006104 308.729995728 -31 callgsubr
        </CharString>
        <CharString name="Hbar">
          175 21 -21 308.5 105.5 89.5800018311 81.5700073242 -81.5700073242 187.919998169 hstemhm
          222 callgsubr
          133 470 callsubr
          220 callsubr
          hintmask 11011100
          659.11000061 503.580001831 rmoveto
          hintmask 11101100
          81.5700073242 -62.6100006104 vlineto
          hintmask 11011100
          106.350006104 381 callgsubr
          vlineto
          hintmask 11101100
          -106.350006104 -245.5 vlineto
          hintmask 11011100
          106.350006104 -133 vlineto
          hintmask 11101100
          -106.350006104 -62.3899993896 vlineto
          hintmask 11011100
          -81.5700073242 62.3899993896 -503.580001831 133 308.5 470 callsubr
          -308.5 220 callsubr
          503.580001831 vlineto
          381 callgsubr
          hmoveto
          -89.5800018311 -245.5 89.5800018311 vlineto
          endchar
        </CharString>
        <CharString name="Hcircumflex">
          0 callsubr
          336.5 -65 callgsubr
          252.350006104 -447.770004272 -31 callgsubr
        </CharString>
        <CharString name="I">
          24 callsubr
          214 hmoveto
          -32 callgsubr
        </CharString>
        <CharString name="IJ">
          99 21 96 callsubr
          20.1300048828 -20 352 callgsubr
          183 220 callsubr
          hintmask 10111000
          529.5 447 callsubr
          381 callgsubr
          -585.5 hlineto
          -87 -15.5 -43.5 -90.5 132 callsubr
          vhcurveto
          35 -94.5 rlineto
          114.5 -40 callgsubr
          89 58 161 vvcurveto
          -315.5 -101 rmoveto
          hintmask 11011000
          -32 callgsubr
        </CharString>
        <CharString name="Iacute">
          24 callsubr
          277.5 -6 callgsubr
          165 -753 rmoveto
          -32 callgsubr
        </CharString>
        <CharString name="Ibreve">
          54 callsubr
          82.6300048828 170 callsubr
          85 callsubr
          142 callgsubr
          146 -78 callsubr
          68 -754 rmoveto
          -32 callgsubr
        </CharString>
        <CharString name="Icircumflex">
          24 callsubr
          147.5 -65 callgsubr
          196.5 -756.5 rmoveto
          -32 callgsubr
        </CharString>
        <CharString name="Idieresis">
          54 callsubr
          101.630004883 138 hstemhm
          170 callgsubr
          140.5 -25.3600006104 55 callgsubr
          -26.5 110 callgsubr
          hintmask 11110100
          36 911 -99 callsubr
          -43.5 -911 rmoveto
          -32 callgsubr
        </CharString>
        <CharString name="Idotaccent">
          54 callsubr
          96.6300048828 249 callgsubr
          66.5 162 callgsubr
          -146.36000061 55 callgsubr
          297 callsubr
          146.5 922.5 rmoveto
          -95 callsubr
          hintmask 11101000
          94 callgsubr
          -922.5 rmoveto
          -32 callgsubr
        </CharString>
        <CharString name="Igrave">
          24 callsubr
          269.5 5 callsubr
          -23 -753 rmoveto
          -32 callgsubr
        </CharString>
        <CharString name="Imacron">
          54 callsubr
          111.130004883 91 85 callsubr
          142 callgsubr
          231 callgsubr
          782.5 -24 callsubr
          212.5 -873.5 rmoveto
          -32 callgsubr
        </CharString>
        <CharString name="Iogonek">
          -212 223 callsubr
          175 96 callsubr
          hstemhm
          -20 98 2.63999938965 55 callgsubr
          hintmask 11101000
          214 691.369995117 249 callsubr
          -685.839996338 hlineto
          hintmask 11110000
          -64.8999938965 -33.1100006104 -35.7400054932 -43.4499969482 -58.9700012207 115 callsubr
          15.5 hlineto
          endchar
        </CharString>
        <CharString name="Iota">
          24 callsubr
          214 hmoveto
          -32 callgsubr
        </CharString>
        <CharString name="Iotadieresis">
          54 callsubr
          101.630004883 138 hstemhm
          170 callgsubr
          140.5 -25.3600006104 55 callgsubr
          -26.5 110 callgsubr
          hintmask 11110100
          36 911 -99 callsubr
          -43.5 -911 rmoveto
          -32 callgsubr
        </CharString>
        <CharString name="Iotatonos">
          54 callsubr
          20.1300048828 -20 352 callgsubr
          hintmask 10110000
          61 51 callgsubr
          234 -477.5 rmoveto
          hintmask 11010000
          -32 callgsubr
        </CharString>
        <CharString name="Itilde">
          54 callsubr
          431 callgsubr
          93 -46.5 93 352 callgsubr
          hintmask 00000000
          hintmask 11101000
          208.5 433 callsubr
          -11 callgsubr
          5.5 -770.5 rmoveto
          -32 callgsubr
        </CharString>
        <CharString name="J">
          -195 111 callgsubr
          hstem
          102.429992676 204 callsubr
          235.130004883 205 callgsubr
          -132.699996948 -585.259994507 hlineto
          59 callsubr
          endchar
        </CharString>
        <CharString name="Jcircumflex">
          -195 206 callsubr
          hstem
          102.429992676 204 callsubr
          169 -65 callgsubr
          196.130004883 -65.1199951172 rmoveto
          -132.699996948 -585.270004272 hlineto
          -86.8999938965 -15.6100006104 -43.7400054932 -90.3200073242 -35.3200073242 vhcurveto
          35.1900024414 -94.8099975586 rlineto
          114.399993896 36.6999969482 89.0399932861 58.0800018311 160.979995728 vvcurveto
          endchar
        </CharString>
        <CharString name="K">
          164 callsubr
          70 callsubr
          hintmask 10110000
          260 callgsubr
          endchar
        </CharString>
        <CharString name="Kappa">
          164 callsubr
          70 callsubr
          hintmask 10110000
          260 callgsubr
          endchar
        </CharString>
        <CharString name="Kcommaaccent">
          164 callsubr
          39.1600036621 138 70 callsubr
          hintmask 10111000
          260 callgsubr
          -297.559997559 -72 -96 callsubr
        </CharString>
        <CharString name="L">
          424 callgsubr
          14 callsubr
          325 callsubr
          108.470001221 rmoveto
          68 callgsubr
          endchar
        </CharString>
        <CharString name="Lacute">
          424 callgsubr
          14 callsubr
          277.5 -6 callgsubr
          164.339996338 -644.529998779 rmoveto
          68 callgsubr
          endchar
        </CharString>
        <CharString name="Lambda">
          76 21 -21 590.300003052 31 callsubr
          90 callgsubr
          hintmask 10110000
          587.039993286 hmoveto
          -213.88999939 95 callgsubr
          -162.789993286 hlineto
          -214.880004883 80 callsubr
          136.410003662 hlineto
          hintmask 11010000
          157.869995117 590.300003052 157.210006714 -590.300003052 rlineto
          endchar
        </CharString>
        <CharString name="Lcaron">
          -1 0 108.470001221 582.529998779 -20 20.3699951172 -20 32.1300048828 187 callgsubr
          hintmask 00000000
          hintmask 11001000
          391 691 328 callgsubr
          -131.160003662 -381.529998779 rmoveto
          hintmask 10101000
          68 callgsubr
          endchar
        </CharString>
        <CharString name="Lcommaaccent">
          424 callgsubr
          hstemhm
          -80 callsubr
          132.699996948 -2.34999084473 138 hintmask 11100000
          325 callsubr
          108.470001221 rmoveto
          68 callgsubr
          hintmask 11010000
          -209.050003052 -180.470001221 -96 callsubr
        </CharString>
        <CharString name="Ldot">
          -1 0 108.470001221 207.029998779 171 callgsubr
          221.369995117 -20 -58 callgsubr
          101.150009155 270 callgsubr
          325 callsubr
          108.470001221 rmoveto
          68 callgsubr
          -95.0500030518 361.529998779 rmoveto
          -95 callsubr
          endchar
        </CharString>
        <CharString name="Lslash">
          28 0 108.5 583 -20 hstem
          109.5 445 callsubr
          518.5 108.5 rmoveto
          -276.5 212.600006104 hlineto
          189.410003662 117.240005493 -46.8300018311 74.2599945068 -142.580001831 -88.25 rlineto
          267.149993896 381 callgsubr
          -349.149993896 vlineto
          -94.9700012207 -58.6499938965 46.4900054932 -74.6100006104 48.4799957275 30.0099945068 rlineto
          -239.100006104 394.5 vlineto
          endchar
        </CharString>
        <CharString name="M">
          -61 callsubr
        </CharString>
        <CharString name="Mu">
          -61 callsubr
        </CharString>
        <CharString name="N">
          0 callgsubr
          474 callsubr
          hmoveto
          -70 callsubr
        </CharString>
        <CharString name="Nacute">
          0 callgsubr
          474 -6 callgsubr
          345.990005493 -753 rmoveto
          -70 callsubr
        </CharString>
        <CharString name="Nacute.loclPLK">
          0 callgsubr
          477 124 callsubr
          251.990005493 -738 rmoveto
          -70 callsubr
        </CharString>
        <CharString name="Ncaron">
          0 callgsubr
          523 -15 callsubr
          206.990005493 -751.5 rmoveto
          -70 callsubr
        </CharString>
        <CharString name="Ncommaaccent">
          165 0 131.179992676 -110.179992676 -21 558.850006104 132.520004272 -12 callsubr
          hstemhm
          -80 callsubr
          169 callsubr
          68.7700042725 138 62.8999938965 169 callsubr
          hintmask 01011010
          474 callsubr
          hmoveto
          143 callsubr
          hintmask 10011010
          -98.2599945068 12.3600006104 -99.8099975586 5.74000549316 -38.0800018311 vhcurveto
          -240.550003052 560.190002441 rlineto
          -167.809997559 -47 callsubr
          169 callsubr
          282.039993286 hlineto
          hintmask 01101110
          128.339996338 -11.0599975586 88.0700073242 -6.69999694824 60.3999938965 vhcurveto
          236.529998779 -558.850006104 78 callsubr
          -72 -96 callsubr
        </CharString>
        <CharString name="Ntilde">
          165 0 131.179992676 -110.179992676 -21 558.850006104 132.520004272 -12 callsubr
          431 callgsubr
          93 -46.5 93 335 callgsubr
          hintmask 00000000
          hintmask 01011011
          405 433 callsubr
          rmoveto
          -91 callgsubr
          hintmask 01010111
          -102 callgsubr
          hintmask 01011011
          -74 callsubr
          hintmask 01010111
          186.490005493 -770.5 rmoveto
          143 callsubr
          hintmask 10010111
          -98.2599945068 12.3600006104 -99.8099975586 5.74000549316 -38.0800018311 vhcurveto
          -240.550003052 560.190002441 rlineto
          -167.809997559 -47 callsubr
          169 callsubr
          282.039993286 hlineto
          hintmask 01100111
          128.339996338 -11.0599975586 88.0700073242 -6.69999694824 60.3999938965 vhcurveto
          236.529998779 -558.850006104 rlineto
          endchar
        </CharString>
        <CharString name="Nu">
          0 callgsubr
          474 callsubr
          hmoveto
          -70 callsubr
        </CharString>
        <CharString name="O">
          184 -14.7200012207 101.089996338 518.630004883 101.089996338 hstem
          43.1100006104 139.380004883 326.339996338 139.369995117 vstem
          345.660003662 706.089996338 -105 callgsubr
        </CharString>
        <CharString name="OE">
          402 36 callsubr
          -86.3699951172 86.3699951172 -86.3699951172 99.0899963379 203.400009155 97.3899993896 192.739990234 98.75 -86.3699951172 86.3699951172 -86.3699951172 101.089996338 hstemhm
          43.1000061035 139.380004883 306.339996338 136.699996948 hintmask 0011100110000000
          857.259994507 hmoveto
          99.0899963379 -309.949996948 vlineto
          45.1499938965 51.8600006104 26.8600006104 71.1199951172 7.02000427246 80.4199981689 rrcurveto
          180.309997559 97.3899993896 -181.130004883 hlineto
          -7.7799987793 76.6000061035 -24.6600036621 66.7400054932 -40.8600006104 49.3999938965 rrcurveto
          287.050003052 hlineto
          191 callgsubr
          98.75 rlineto
          -433.809997559 hlineto
          hintmask 1001001110000000
          9.82000732422 -27.25 -30.0800018311 4.89999389648 -31.5800018311 hhcurveto
          -169.869995117 -117.979995728 -134.399993896 -226.660003662 110 callsubr
          -128.75 169.869995117 hvcurveto
          hintmask 0011100110000000
          29.8500061035 28.9499969482 4.85000610352 9.86999511719 26.1000061035 hvcurveto
          hintmask 0101010110000000
          -233.369995117 345.029998779 rmoveto
          186.100006104 60.7400054932 73.8699951172 92.4299926758 94.4199981689 58.75 -73.8699951172 -185.440002441 399 callgsubr
          -93.7799987793 -90.4499969482 -62.7200012207 64 callgsubr
          vhcurveto
          endchar
        </CharString>
        <CharString name="Oacute">
          -21 callgsubr
          478.5 -6 callgsubr
          95.6600036621 -46.9100036621 -105 callgsubr
        </CharString>
        <CharString name="Oacute.loclPLK">
          -21 callgsubr
          481.5 124 callsubr
          1.66000366211 -31.9100036621 -105 callgsubr
        </CharString>
        <CharString name="Obreve">
          -36 callgsubr
          47.9100036621 170 callsubr
          47 callgsubr
          347 -78 callsubr
          -1.33999633789 -47.9100036621 -105 callgsubr
        </CharString>
        <CharString name="Ocircumflex">
          -21 callgsubr
          348.5 -65 callgsubr
          127.160003662 -50.4100036621 -105 callgsubr
        </CharString>
        <CharString name="Odieresis">
          -36 callgsubr
          66.9100036621 138 160 callgsubr
          -15.9900054932 -80 callgsubr
          -20.1699981689 142 callsubr
          439 callsubr
          237 911 -107 callgsubr
          hintmask 11010010
          -112.839996338 -204.910003662 -105 callgsubr
        </CharString>
        <CharString name="Ograve">
          -21 callgsubr
          470.5 5 callsubr
          -92.3399963379 -46.9100036621 -105 callgsubr
        </CharString>
        <CharString name="Ohm">
          14 callgsubr
          345.660003662 706.089996338 -89 callsubr
        </CharString>
        <CharString name="Ohungarumlaut">
          -21 callgsubr
          401.5 927 -66 callgsubr
          109 callgsubr
          -105.339996338 -48.9100036621 -105 callgsubr
        </CharString>
        <CharString name="Omacron">
          -36 callgsubr
          76.4100036621 91 160 callgsubr
          20.0099945068 72 callgsubr
          15.8300018311 142 callsubr
          hintmask 00000000
          hintmask 11111100
          202.5 782.5 -24 callsubr
          hintmask 11110100
          143.160003662 -167.410003662 -105 callgsubr
        </CharString>
        <CharString name="Omega">
          14 callgsubr
          345.660003662 706.089996338 -89 callsubr
        </CharString>
        <CharString name="Omegatonos">
          184 0 101.050003052 503.949996948 101.089996338 -14.5899963379 -20 160 callgsubr
          -118.380004883 235.720001221 91 235.710006714 -117.710006714 142 callsubr
          hintmask 00000000
          hintmask 10110010
          93.5 51 callgsubr
          hintmask 11010010
          333.160003662 228.589996338 241 callgsubr
          -137.449996948 -202.399993896 -134.809997559 40.4400024414 -82.0399932861 88.3000030518 -48.3399963379 hvcurveto
          hintmask 11001010
          -107.740005493 -101.050003052 235.720001221 97.6600036621 hlineto
          hintmask 11010010
          -84.3000030518 34.7299957275 -33.0399932861 71.3399963379 162.509994507 vvcurveto
          163.190002441 60.7299957275 75.5700073242 102.440002441 104.410003662 58.7599945068 -75.5700073242 -162.529998779 -153.919998169 -28.4199981689 -80.6100006104 -89.5800018311 -34.7100067139 vhcurveto
          hintmask 11010100
          -97.6600036621 235.710006714 101.050003052 -111.699996948 vlineto
          hintmask 11010010
          95.5700073242 53.6300048828 37.7899932861 80.7100067139 131.509994507 vvcurveto
          205.699996948 -114.679992676 133.490005493 -187.869995117 vhcurveto
          endchar
        </CharString>
        <CharString name="Omicron">
          184 -14.7200012207 101.089996338 518.630004883 101.089996338 hstem
          43.1100006104 139.380004883 326.339996338 139.369995117 vstem
          345.660003662 706.089996338 -105 callgsubr
        </CharString>
        <CharString name="Omicrontonos">
          -36 callgsubr
          -14.5899963379 -20 hstemhm
          10 callsubr
          hintmask 00000000
          hintmask 10111000
          96.5 51 callgsubr
          hintmask 11011000
          330.160003662 228.589996338 -105 callgsubr
        </CharString>
        <CharString name="Oslash">
          184 139 callsubr
          101.119995117 -75.6600036621 -21 615.270004272 101.089996338 -4.31999206543 354 callsubr
          142 callsubr
          326.330001831 139.38999939 hintmask 10101100
          542.600006104 796.300003052 rmoveto
          -103.11000061 27.4499969482 rlineto
          hintmask 10011100
          -37.1799926758 -121.979995728 rlineto
          hintmask 01101100
          2.86999511719 -18.0800018311 -18.9100036621 1.44999694824 -19.6699981689 hhcurveto
          375 callgsubr
          -134.399993896 -226.660003662 -156.350006104 54.0500030518 -109.509994507 92.1600036621 -54.4499969482 hvcurveto
          -39.9499969482 -128.350006104 103.119995117 -27.4499969482 35.8399963379 120.809997559 214 callsubr
          133.100006104 232 callsubr
          -62.1399993896 rmoveto
          13.7700042725 12.9799957275 -0.990005493164 -2.19000244141 12.1499938965 hvcurveto
          -144.229995728 -478.589996338 rlineto
          -36.9600067139 36.6600036621 -20.8800048828 68.0899963379 117.070007324 vvcurveto
          186.089996338 60.7299957275 73.8699951172 102.440002441 vhcurveto
          -518.619995117 vmoveto
          -13.8399963379 -13.1199951172 1.05999755859 2.36000061035 -12.3399963379 hvcurveto
          144.089996338 480.070007324 rlineto
          38.0200042725 -36.4199981689 20.3500061035 -68.7400054932 -119 vvcurveto
          348 callgsubr
          vhcurveto
          endchar
        </CharString>
        <CharString name="Oslashacute">
          -73 callsubr
        </CharString>
        <CharString name="Oslashacute.001">
          -73 callsubr
        </CharString>
        <CharString name="Otilde">
          -36 callgsubr
          64.4100036621 93 -46.5 93 hstemhm
          10 callsubr
          439 callsubr
          409.5 433 callsubr
          rmoveto
          -91 callgsubr
          hintmask 11011100
          -102 callgsubr
          hintmask 11101100
          -74 callsubr
          hintmask 11011100
          -63.8399963379 -64.4100036621 -105 callgsubr
        </CharString>
        <CharString name="P">
          -53 callsubr
        </CharString>
        <CharString name="Phi">
          321 21.0099945068 -21 72.3100128174 85.5599975586 373.979995728 85.5599975586 -85.5599975586 159.520004272 hstemhm
          24.8099975586 236 callgsubr
          hintmask 11011011
          803.190002441 348.36000061 rmoveto
          hintmask 11101101
          161.740005493 -120.61000061 97.9799957275 -204.410003662 9.33999633789 vhcurveto
          hintmask 11011101
          73.9600067139 -128.679992676 vlineto
          hintmask 11101101
          -73.7599945068 vlineto
          -196.130004883 -6.78999328613 -128.550003052 -93.8999938965 -171.929992676 vvcurveto
          -165.190002441 120.479995728 -98.0500030518 204.199996948 -9.44000244141 vhcurveto
          -72.3099975586 128.679992676 72.0800018311 vlineto
          hintmask 11011011
          196.309997559 6.69999694824 128.710006714 94 175.570007324 vvcurveto
          -643.020004272 450 callgsubr
          hintmask 11101011
          113.589996338 60.5500030518 64.7799987793 133.490005493 9.16999816895 vhcurveto
          -374.660003662 vlineto
          hintmask 11011011
          -131.100006104 7.05000305176 -62.9400024414 66.3000030518 113.770004272 vvcurveto
          313.279998779 186.86000061 rmoveto
          131.330001831 -6.94999694824 63.0500030518 -66.1900024414 -110.36000061 vvcurveto
          -115.550003052 -60.6600036621 -66.4400024414 -133.720001221 -9.19999694824 vhcurveto
          endchar
        </CharString>
        <CharString name="Pi">
          120 callgsubr
        </CharString>
        <CharString name="Psi">
          205 21 -21 206 callsubr
          hstemhm
          26.5099945068 272 callsubr
          134.340011597 -73 callgsubr
          -127.990005493 123.270004272 139.720001221 272 callsubr
          hintmask 11101100
          685.830001831 210 callsubr
          rmoveto
          -128.63999939 -262.119995117 hlineto
          -88.9199981689 -43.5500030518 -45.1199951172 -96.1699981689 -11.5200042725 vhcurveto
          407.679992676 -123.270004272 -408.220001221 vlineto
          -99.2899932861 10.9700012207 -39.7599945068 45.9700012207 89.1600036621 vvcurveto
          262.119995117 -128.63999939 -263.679992676 vlineto
          hintmask 11110100
          -140.029998779 86.4700012207 -82.7799987793 176.509994507 -18.0500030518 vhcurveto
          -186.839996338 -73 callgsubr
          187.179992676 vlineto
          170.169998169 17.5899963379 93.4700012207 82.0099945068 142.899993896 vvcurveto
          endchar
        </CharString>
        <CharString name="Q">
          182 -12.0399932861 54.1000061035 -54.1000061035 98.4199981689 518.619995117 101.089996338 hstemhm
          43.1199951172 142 callsubr
          326.340011597 139.380004883 hintmask 00000000
          hintmask 10111000
          487.490005493 42.0500030518 rmoveto
          91.2100067139 49.3099975586 69.5099945068 86.0200042725 168.320007324 vvcurveto
          231.660003662 -117.320007324 128.729995728 -185.229995728 -184.559997559 -23 callsubr
          vhcurveto
          hintmask 01111000
          110 callsubr
          -126.080001831 178.149993896 vhcurveto
          251 callsubr
          -0.0800018310547 65.0899963379 -43.6999969482 70.4600067139 -70.9499969482 rrcurveto
          hintmask 10111000
          82.0399932861 106.490005493 rlineto
          37.3899993896 -52.3899993896 -59.3399963379 24.9499969482 -85.1199951172 hhcurveto
          hintmask 01111000
          -305 302.979995728 rmoveto
          186.089996338 60.7400054932 73.8699951172 102.429992676 104.419998169 58.75 -73.8699951172 -185.429992676 348 callgsubr
          -100.449996948 -62.7200012207 72.5599975586 186.100006104 vhcurveto
          endchar
        </CharString>
        <CharString name="R">
          116 callsubr
          296.960006714 277.050003052 -42 callsubr
        </CharString>
        <CharString name="Racute">
          116 callsubr
          205 753 108 callgsubr
          124.960006714 -541.949996948 -42 callsubr
        </CharString>
        <CharString name="Rcaron">
          116 callsubr
          263.5 751.5 rmoveto
          80.5 hlineto
          262 callsubr
          120.5 -48.5 56 -130.5 -82.5 -130 82.5 -49 -56 rlineto
          172.460006714 -594.949996948 -42 callsubr
        </CharString>
        <CharString name="Rcommaaccent">
          104 21 -21 277.059997559 95.0700073242 222.489990234 96.7599945068 63 callgsubr
          29.1600036621 138 42.8200073242 138.020004272 hintmask 11110100
          601.729995728 hmoveto
          -180.600006104 301.240005493 rlineto
          94.0599975586 36.3399963379 46.1499938965 55.9100036621 94.0599975586 vvcurveto
          137.149993896 -93.3999938965 66.6799926758 -181.169998169 vhcurveto
          -206.130004883 -691.380004883 -73 callgsubr
          277.059997559 83.6199951172 hlineto
          152.720001221 -277.059997559 rlineto
          -236.339996338 372.130004883 rmoveto
          222.490005493 71.0700073242 vlineto
          95.3399963379 43.5700073242 -31.6000061035 -75.4700012207 -82.1300048828 -45.8300018311 -33.2899932861 -82.4199981689 hvcurveto
          hintmask 11111100
          16.9299926758 -444.130004883 -96 callsubr
        </CharString>
        <CharString name="Rho">
          -53 callsubr
        </CharString>
        <CharString name="S">
          1 callgsubr
          279.850006104 706.089996338 -103 callgsubr
          endchar
        </CharString>
        <CharString name="Sacute">
          1 callgsubr
          417 -6 callgsubr
          91.3500061035 -46.9100036621 -103 callgsubr
          endchar
        </CharString>
        <CharString name="Sacute.loclPLK">
          1 callgsubr
          420 124 callsubr
          -2.64999389648 -31.9100036621 -103 callgsubr
          endchar
        </CharString>
        <CharString name="Scaron">
          1 callgsubr
          465.5 -15 callsubr
          -47.1499938965 -45.4100036621 -103 callgsubr
          endchar
        </CharString>
        <CharString name="Scedilla">
          312 callgsubr
          164.88999939 100.669998169 517.940002441 101.089996338 hstemhm
          44.8399963379 136.059997559 47.7600097656 83.8200073242 1.49998474121 97 -20.9499969482 138.050003052 hintmask 11111010
          528.089996338 197.429992676 rmoveto
          129.630004883 -83.8099975586 49.4499969482 -121.210006714 38.0800018311 vhcurveto
          -115.509994507 35.9600067139 -26.6600036621 22.2200012207 50.5299987793 vvcurveto
          54.1199951172 44.8099975586 27.5800018311 62.5500030518 56.3200073242 48 -18.3399963379 -41.6199951172 48.6399993896 vhcurveto
          66.5599975586 75.9600067139 rlineto
          55.0500030518 -59.6999969482 -67.4700012207 30.0399932861 -100.770004272 hhcurveto
          -136.169998169 -98.8300018311 -76.3699951172 -114.830001831 -104.960006714 62.8699951172 -57.7899932861 145.539993286 -45.0800018311 hvcurveto
          108.169998169 -33.2799987793 28.6100006104 -25.9299926758 -58.1699981689 vvcurveto
          -67.0399932861 -53.4199981689 -35.5800018311 -73.8699951172 -71.6000061035 -56 26.3200073242 44.3200073242 -48.0200042725 vhcurveto
          -70.6300048828 -77.9799957275 51.3999938965 -50.1900024414 71.7899932861 -36.4600067139 94.6600036621 -6.67999267578 rlinecurve
          -11.3600006104 -92.3899993896 rlineto
          hintmask 11110100
          -85 callgsubr
          hvcurveto
          hintmask 11111010
          195 callsubr
          vhcurveto
          39.25 vlineto
          136.289993286 15.0099945068 79.3099975586 82.1399993896 112.539993286 vvcurveto
          endchar
        </CharString>
        <CharString name="Scircumflex">
          1 callgsubr
          429 callgsubr
          -65 callgsubr
          123.350006104 -50.4100036621 -103 callgsubr
          endchar
        </CharString>
        <CharString name="Scommaaccent">
          -76 callsubr
          201 callsubr
          517.940002441 101.089996338 hstemhm
          44.8500061035 136.050003052 27.5799865723 138 43.5599975586 138.050003052 hintmask 11101000
          279.850006104 706.089996338 -103 callgsubr
          hintmask 11111000
          -1.85000610352 -778.089996338 -96 callsubr
        </CharString>
        <CharString name="Sigma">
          -4 0 201 callsubr
          488.839996338 359 callsubr
          446 callsubr
          443.380004883 vstem
          473.190002441 590.619995117 rmoveto
          359 callsubr
          -443.380004883 -100.410003662 vlineto
          205.699996948 -251.630004883 -205.699996948 -238.919998169 rlineto
          -100.419998169 443.380004883 201 callsubr
          -296.979995728 vlineto
          183.36000061 207.539993286 rlineto
          64.0399932861 vlineto
          -182.339996338 217.270004272 rlineto
          endchar
        </CharString>
        <CharString name="T">
          141 callsubr
          510.919998169 196 callsubr
          17 callsubr
          endchar
        </CharString>
        <CharString name="Tau">
          141 callsubr
          510.919998169 196 callsubr
          17 callsubr
          endchar
        </CharString>
        <CharString name="Tbar">
          24 19.5 -21 307.630004883 263 callgsubr
          196.13999939 105.5 hstem
          377 callsubr
          445 callsubr
          331 584.5 rmoveto
          180 hlineto
          13.5 105.5 rlineto
          -513 -105.5 187 -196.13999939 -118.649993896 -82.2299957275 118.649993896 -307.630004883 220 callsubr
          307.630004883 119.699996948 263 callgsubr
          -119.699996948 hlineto
          endchar
        </CharString>
        <CharString name="Tcaron">
          141 callsubr
          444 -15 callsubr
          205.419998169 -165.919998169 17 callsubr
          endchar
        </CharString>
        <CharString name="Tcedilla">
          23 312 callgsubr
          199.5 -21 196 callsubr
          242 callgsubr
          hstemhm
          413 callgsubr
          133.059997559 3.50001525879 97 hintmask 11110000
          184 callsubr
          hlineto
          hintmask 11101000
          58.6000061035 79 callgsubr
        </CharString>
        <CharString name="Theta">
          184 36 callsubr
          223.190002441 84.8699951172 210.570007324 350 callgsubr
          134.619995117 58.120010376 218.960006714 58.7699890137 134.619995117 3 callsubr
          293 callsubr
          60.1100006104 -73.8699951172 -185.440002441 -186.75 -60.75 -72.5700073242 -107.169998169 -103.850006104 -64.0800018311 64 callgsubr
          186.100006104 62.1000061035 73.8699951172 105.830001831 hvcurveto
          109.149993896 -295.440002441 rmoveto
          84.8699951172 -218.960006714 -84.8699951172 vlineto
          endchar
        </CharString>
        <CharString name="Thorn">
          84 21 -21 119.86000061 98.7700042725 262.399993896 97.4299926758 112.910003662 -20 -58 callgsubr
          213.600006104 138.020004272 vstem
          325 callsubr
          578.470001221 rmoveto
          112.899993896 -132.699996948 308 callsubr
          119.86000061 80.5399932861 vlineto
          156.419998169 114.660003662 70.7799987793 164.710006714 151.720001221 -106.419998169 71.3899993896 -173.130004883 hvcurveto
          -72.0700073242 -359.830001831 rmoveto
          262.399993896 70.3899993896 vlineto
          90.4600067139 52.75 -35.9799957275 -90.3600006104 -105.380004883 -55.4299926758 -30.6799926758 -87.0599975586 hvcurveto
          endchar
        </CharString>
        <CharString name="U">
          40 callgsubr
          585.240005493 691.369995117 -93 callgsubr
        </CharString>
        <CharString name="Uacute">
          40 callgsubr
          458 -6 callgsubr
          355.740005493 -61.6300048828 -93 callgsubr
        </CharString>
        <CharString name="Ubreve">
          149 -76 callsubr
          103.089996338 603 -20 82.6300048828 170 callsubr
          71 callsubr
          326.5 -78 callsubr
          258.740005493 -62.6300048828 -93 callgsubr
        </CharString>
        <CharString name="Ucircumflex">
          40 callgsubr
          328 -65 callgsubr
          387.240005493 -65.1300048828 -93 callgsubr
        </CharString>
        <CharString name="Udieresis">
          149 -76 callsubr
          103.089996338 603 -20 101.630004883 138 349 callsubr
          -57.3300018311 -80 callgsubr
          -56.6199951172 55 callgsubr
          439 callsubr
          216.5 911 -107 callgsubr
          hintmask 11110010
          147.240005493 -219.630004883 -93 callgsubr
        </CharString>
        <CharString name="Ugrave">
          40 callgsubr
          450.5 5 callsubr
          167.240005493 -61.6300048828 -93 callgsubr
        </CharString>
        <CharString name="Uhungarumlaut">
          40 callgsubr
          381 927 -66 callgsubr
          109 callgsubr
          154.740005493 -63.6300048828 -93 callgsubr
        </CharString>
        <CharString name="Umacron">
          149 -76 callsubr
          103.089996338 603 -20 111.130004883 91 71 callsubr
          182 782.5 -24 callsubr
          403.240005493 -182.130004883 -93 callgsubr
        </CharString>
        <CharString name="Uogonek">
          149 -239.509994507 222 callgsubr
          140.169998169 102.210006714 602.999984741 -20 349 callsubr
          7.16000366211 98 143.38999939 55 callgsubr
          hintmask 11110100
          585.240005493 691.369995117 249 callsubr
          -458.619995117 hlineto
          -96.8099975586 -38.8500061035 -47.5700073242 -85.75 -85.1000061035 -38.8500061035 47.5700073242 96.8099975586 vhcurveto
          458.619995117 -132.699996948 -465.279998779 vlineto
          -134.289993286 77.1699981689 -95.5500030518 152.179992676 -10.0899963379 vhcurveto
          hintmask 11101100
          -55.7200012207 -25.5899963379 -33.7700042725 -38.8399963379 -51.7400054932 -77 callgsubr
          100 callgsubr
          hvcurveto
          102.740005493 33.0500030518 53.5099945068 85.5299987793 107.509994507 vvcurveto
          endchar
        </CharString>
        <CharString name="Upsilon">
          53 callsubr
          353.559997559 262.279998779 rmoveto
          -89 callgsubr
        </CharString>
        <CharString name="Upsilondieresis">
          67 21 -21 206 callsubr
          101.619995117 138 hstemhm
          107 140.5 -27.3000030518 55 callgsubr
          -24.5599975586 110 callgsubr
          hintmask 11110100
          177.5 911 -99 callsubr
          -45.4400024414 -648.720001221 rmoveto
          -89 callgsubr
        </CharString>
        <CharString name="Upsilontonos">
          67 21 -21 206 callsubr
          20.1199951172 -20 hstemhm
          220.199996948 55 callgsubr
          hintmask 10110000
          -13.5 51 callgsubr
          448.059997559 -215.220001221 rmoveto
          hintmask 11010000
          -89 callgsubr
        </CharString>
        <CharString name="Uring">
          149 -76 callsubr
          103.089996338 603 -20 68.1300048828 94 callgsubr
          105 67 349 callsubr
          -2.83000183105 79 97 79 -3.61999511719 55 callgsubr
          377 callgsubr
          328 979 -83 callgsubr
          hintmask 11111001
          257.240005493 -220.630004883 -93 callgsubr
        </CharString>
        <CharString name="Utilde">
          149 -76 callsubr
          103.089996338 603 -20 431 callgsubr
          93 -46.5 93 349 callsubr
          248.550003052 55 callgsubr
          439 callsubr
          389 433 callsubr
          rmoveto
          -91 callgsubr
          hintmask 11011100
          -102 callgsubr
          hintmask 11101100
          -74 callsubr
          hintmask 11011100
          196.240005493 -79.1300048828 -93 callgsubr
        </CharString>
        <CharString name="V">
          57 0 116.580001831 -95.5800018311 -21 691.369995117 287 callgsubr
          572.869995117 hintmask 01110000
          363.279998779 hmoveto
          205.059997559 95 callgsubr
          -135.059997559 hlineto
          hintmask 10110000
          -146.509994507 -574.789993286 -150.240005493 574.789993286 rlineto
          -141.059997559 hlineto
          210.119995117 80 callsubr
          endchar
        </CharString>
        <CharString name="W">
          39 callsubr
          693.940002441 hmoveto
          -68 callgsubr
        </CharString>
        <CharString name="Wacute">
          39 callsubr
          549.5 -6 callgsubr
          372.940002441 -753 rmoveto
          -68 callgsubr
        </CharString>
        <CharString name="Wcircumflex">
          39 callsubr
          419.5 -65 callgsubr
          404.440002441 -756.5 rmoveto
          -68 callgsubr
        </CharString>
        <CharString name="Wdieresis">
          330 0 105.410003662 445.440002441 140.520004272 -12 callsubr
          101.630004883 138 hstemhm
          237.5 -80 callgsubr
          hintmask 10111100
          308 911 -107 callgsubr
          164.440002441 -911 rmoveto
          126.759994507 95 callgsubr
          -124.699996948 hlineto
          -96.3200073242 -585.960006714 -110.869995117 366 callgsubr
          -139.720001221 hlineto
          -112.960006714 -585.960006714 -88.2400054932 366 callgsubr
          -131.380004883 hlineto
          125.399993896 80 callsubr
          167.559997559 hlineto
          hintmask 11011100
          107.960006714 550.850006104 104.929992676 -550.850006104 rlineto
          endchar
        </CharString>
        <CharString name="Wgrave">
          39 callsubr
          542 5 callsubr
          184.440002441 -753 rmoveto
          -68 callgsubr
        </CharString>
        <CharString name="X">
          55 406 callsubr
          382 callgsubr
          562.600006104 vstem
          562.509994507 hmoveto
          -204.570007324 373.020004272 -25 callsubr
          endchar
        </CharString>
        <CharString name="Xi">
          11 0 117.210006714 179.259994507 108.779998779 172.279998779 113.850006104 hstem
          -40 callgsubr
          445.11000061 vstem
          461.63999939 577.529998779 rmoveto
          16.3899993896 113.850006104 rlineto
          -441.529998779 -113.850006104 hlineto
          377.130004883 -281.059997559 rmoveto
          108.779998779 -314.429992676 -108.779998779 vlineto
          382.410003662 -296.470001221 rmoveto
          117.210006714 -445.11000061 -117.210006714 vlineto
          endchar
        </CharString>
        <CharString name="Y">
          53 callsubr
          353.559997559 262.279998779 rmoveto
          -89 callgsubr
        </CharString>
        <CharString name="Yacute">
          53 callsubr
          419 -6 callgsubr
          163.059997559 -490.720001221 rmoveto
          -89 callgsubr
        </CharString>
        <CharString name="Ycircumflex">
          53 callsubr
          289 -65 callgsubr
          194.559997559 -494.220001221 rmoveto
          -89 callgsubr
        </CharString>
        <CharString name="Ydieresis">
          67 21 -21 206 callsubr
          101.619995117 138 hstemhm
          107 140.5 -27.3000030518 55 callgsubr
          -24.5599975586 110 callgsubr
          hintmask 11110100
          177.5 911 -99 callsubr
          -45.4400024414 -648.720001221 rmoveto
          -89 callgsubr
        </CharString>
        <CharString name="Ygrave">
          53 callsubr
          411 5 callsubr
          -24.9400024414 -490.720001221 rmoveto
          -89 callgsubr
        </CharString>
        <CharString name="Z">
          81 callgsubr
          496.020004272 588.559997559 -37 callsubr
        </CharString>
        <CharString name="Zacute">
          81 callgsubr
          404.5 -6 callgsubr
          320.020004272 -164.440002441 -37 callsubr
        </CharString>
        <CharString name="Zacute.loclPLK">
          81 callgsubr
          407.5 124 callsubr
          226.020004272 -149.440002441 -37 callsubr
        </CharString>
        <CharString name="Zcaron">
          81 callgsubr
          453.5 -15 callsubr
          181.020004272 -162.940002441 -37 callsubr
        </CharString>
        <CharString name="Zdotaccent">
          27 0 108.169998169 477.38999939 105.809997559 76.6300048828 340 callgsubr
          194 270 callgsubr
          274 922.5 rmoveto
          -95 callsubr
          222.020004272 -333.940002441 -37 callsubr
        </CharString>
        <CharString name="Zeta">
          81 callgsubr
          496.020004272 588.559997559 -37 callsubr
        </CharString>
        <CharString name="a">
          -43 callgsubr
          hstem
          63 callsubr
          vstem
          468.339996338 361.619995117 -107 callsubr
        </CharString>
        <CharString name="a.sc">
          -70 callgsubr
          102 callsubr
          hintmask 11011000
          348.899993896 124.770004272 -100 callgsubr
          hintmask 11101000
          13 callsubr
        </CharString>
        <CharString name="aacute">
          -43 callgsubr
          hstem
          63 callsubr
          vstem
          162 629.5 -14 callgsubr
          342.839996338 -333.880004883 -107 callsubr
        </CharString>
        <CharString name="aacute.sc">
          -70 callgsubr
          102 callsubr
          hintmask 11011000
          159 383 callgsubr
          -14 callgsubr
          226.399993896 -600.729995728 -100 callgsubr
          hintmask 11101000
          13 callsubr
        </CharString>
        <CharString name="abreve">
          -43 callgsubr
          365 callsubr
          hstem
          63 callsubr
          vstem
          265 637 -100 callsubr
          203.339996338 -275.380004883 -107 callsubr
        </CharString>
        <CharString name="abreve.sc">
          -13 callgsubr
        </CharString>
        <CharString name="acircumflex">
          -43 callgsubr
          hstem
          63 callsubr
          vstem
          136 626.5 135 callgsubr
          380.839996338 -320.880004883 -107 callsubr
        </CharString>
        <CharString name="acircumflex.sc">
          -70 callgsubr
          102 callsubr
          hintmask 11011000
          126.5 656.5 135 callgsubr
          270.899993896 -587.729995728 -100 callgsubr
          hintmask 11101000
          13 callsubr
        </CharString>
        <CharString name="acute">
          -185 629.509994507 190.169998169 259 callsubr
          719.919998169 rmoveto
          -52.2100067139 99.7599945068 -209.529998779 -124.190002441 36.4900054932 -65.9799957275 rlineto
          endchar
        </CharString>
        <CharString name="acute.case">
          -185 752.960006714 182.830001831 259 callsubr
          836.029998779 rmoveto
          -51.2100067139 99.7599945068 -210.529998779 -116.850006104 32.8300018311 -65.9799957275 rlineto
          endchar
        </CharString>
        <CharString name="acute.case.loclPLK">
          -185 738.080001831 208.979995728 hstem
          96.6900024414 197.039993286 vstem
          293.729995728 889.529998779 rmoveto
          -96.4499969482 57.5299987793 -100.589996338 -174.190002441 59.2700042725 -34.7899932861 rlineto
          endchar
        </CharString>
        <CharString name="acute.loclPLK">
          -185 579.380004883 330 callgsubr
          737.130004883 244 callsubr
        </CharString>
        <CharString name="acute.sc">
          -185 383 callgsubr
          190 hstem
          30 410 callsubr
          vstem
          291.5 750 -84 callsubr
          endchar
        </CharString>
</ttFont>
